<svg width="30" height="27" viewBox="0 0 30 27" fill="none" xmlns="http://www.w3.org/2000/svg">
<path d="M14.9999 26.7146L13.5478 25.4042C11.0451 23.1139 8.97908 21.1365 7.34992 19.4719C5.72075 17.8073 4.42214 16.3198 3.45409 15.0094C2.48603 13.699 1.80721 12.5125 1.41763 11.45C1.02804 10.3875 0.833252 9.31319 0.833252 8.22708C0.833252 6.10208 1.54749 4.32535 2.97596 2.89687C4.40443 1.4684 6.16936 0.754166 8.27075 0.754166C9.61658 0.754166 10.8621 1.07292 12.0072 1.71042C13.1523 2.34792 14.1499 3.26875 14.9999 4.47292C15.9916 3.19792 17.0423 2.25937 18.152 1.65729C19.2617 1.05521 20.4541 0.754166 21.7291 0.754166C23.8305 0.754166 25.5954 1.4684 27.0239 2.89687C28.4523 4.32535 29.1666 6.10208 29.1666 8.22708C29.1666 9.31319 28.9718 10.3875 28.5822 11.45C28.1926 12.5125 27.5138 13.699 26.5458 15.0094C25.5777 16.3198 24.2791 17.8073 22.6499 19.4719C21.0208 21.1365 18.9548 23.1139 16.452 25.4042L14.9999 26.7146Z" fill="#E30B1C"/>
</svg>
