<svg xmlns="http://www.w3.org/2000/svg" width="79.204" height="79.204" viewBox="0 0 79.204 79.204">
    <g data-name="Group 8814">
        <g data-name="Group 8812">
            <path data-name="Path 15849" d="M731.125 1918.825H656.44a39.614 39.614 0 0 0 74.685 0z" transform="translate(-654.181 -1866.015)" style="fill-rule:evenodd;fill:#242222"/>
            <path data-name="Path 15850" d="M691.18 1944.956h5.078c-.84.053-1.686.083-2.539.083s-1.7-.03-2.539-.083zm39.921-26.42-.09.255h-74.583l-.09-.255z" transform="translate(-654.117 -1865.835)" style="fill-rule:evenodd;fill:#242222"/>
            <path data-name="Path 15851" d="M652.727 1875.4h74.685a39.737 39.737 0 0 0 0-26.42h-74.683a39.741 39.741 0 0 0 0 26.42z" transform="translate(-650.468 -1822.591)" style="fill:#fefefe;fill-rule:evenodd"/>
            <path data-name="Path 15852" d="M656.322 1875.058h74.763l-.09.255h-74.584l-.09-.255zm74.673-26.453.1.283h-74.783l.1-.283z" transform="translate(-654.101 -1822.357)" style="fill:#fefefe;fill-rule:evenodd"/>
            <path data-name="Path 15853" d="M656.444 1805.607h74.683a39.614 39.614 0 0 0-74.683 0z" transform="translate(-654.183 -1779.218)" style="fill:#c12837;fill-rule:evenodd"/>
            <path data-name="Path 15854" d="M656.412 1805.465h74.582l.1.283h-74.782l.1-.283zm37.291-26.247a37.7 37.7 0 0 1 2.741.1h-5.481c.905-.066 1.819-.1 2.737-.1z" transform="translate(-654.101 -1779.218)" style="fill:#c12837;fill-rule:evenodd"/>
            <path data-name="Path 15855" d="M740.223 1910.918a27.436 27.436 0 0 0 6.533-.614c.623-.094.623-.427.623-.84.62-.206.3-.931.729-.931-.424.124-.53-.729-1.044-.6 0-.741-.734-.838-1.354-.631a20.815 20.815 0 0 1-5.488.506 26.376 26.376 0 0 1-5.508-.506c-.607-.208-1.336-.109-1.336.631-.513-.127-.615.729-1.041.6.425 0 .117.725.717.931 0 .413 0 .746.648.84a27.071 27.071 0 0 0 6.52.615z" transform="translate(-701.367 -1858.789)" style="fill:#fefefe;fill-rule:evenodd"/>
            <path data-name="Path 15856" d="M732.37 1908.221a.789.789 0 0 1 .06.191c.041.219.074.332.265.393a.254.254 0 0 1 .172.239c0 .413 0 .523.426.6a34.984 34.984 0 0 0 12.94 0c.438-.077.438-.187.438-.6a.249.249 0 0 1 .174-.239c.2-.061.223-.174.284-.393a.666.666 0 0 1 .04-.19 1.751 1.751 0 0 0-.19-.223c-.116-.174-.191-.251-.276-.251a.279.279 0 0 1-.239-.064c-.055-.049-.117-.11-.117-.175 0-.127 0-.474-.522-.474a1.341 1.341 0 0 0-.474.094 20.247 20.247 0 0 1-5.578.506l-1.133-.028a19.7 19.7 0 0 1-4.444-.478 1.364 1.364 0 0 0-.473-.094c-.53 0-.53.349-.53.474a.233.233 0 0 1-.106.175.2.2 0 0 1-.2.064c-.144.016-.206.077-.323.251l-.19.223zm7.4 2.549a28.039 28.039 0 0 1-6.6-.62.852.852 0 0 1-.823-.915 1 1 0 0 1-.438-.729 1 1 0 0 0-.043-.125h-.058a.309.309 0 0 1-.2-.3.265.265 0 0 1 .272-.223h.061c.042 0 .141-.125.206-.189a1.011 1.011 0 0 1 .556-.426c.134-.62.866-.854 1.644-.619a18.262 18.262 0 0 0 4.317.462l1.11.043a18.874 18.874 0 0 0 5.411-.505c.791-.253 1.526 0 1.653.652a1.031 1.031 0 0 1 .547.392c.062.064.151.175.174.191h.093a.259.259 0 0 1 .26.223.288.288 0 0 1-.188.3c-.015 0-.033-.016-.048-.016-.016.015-.024.016-.024.016h-.016c.016.015 0 .064-.016.125a1.019 1.019 0 0 1-.442.729.852.852 0 0 1-.822.915 28.086 28.086 0 0 1-6.59.62z" transform="translate(-700.919 -1858.368)" style="fill:#f1cd0d;fill-rule:evenodd"/>
            <path data-name="Path 15857" d="M737.306 1910.175c-.207 0-.207.125 0 .125a.063.063 0 1 0 0-.125z" transform="translate(-704.361 -1860.637)" style="fill:#f5d722;fill-rule:evenodd"/>
            <path data-name="Path 15858" d="M737.089 1910.207c-.279 0-.288-.175-.288-.207 0-.127.175-.2.287-.2a.277.277 0 0 1 .207.2c0 .065-.13.207-.207.207z" transform="translate(-704.143 -1860.402)" style="fill:#f1cd0d;fill-rule:evenodd"/>
            <path data-name="Path 15859" d="M737.422 1909.121c-.113 0-.113.192 0 .192.207 0 .207-.191 0-.191z" transform="translate(-704.477 -1859.981)" style="fill:#f5d722;fill-rule:evenodd"/>
            <path data-name="Path 15860" d="M737.208 1909.208c-.073 0-.216-.157-.216-.218 0-.082.142-.239.214-.239a.265.265 0 0 1 .3.239c0 .108-.1.218-.3.218z" transform="translate(-704.262 -1859.752)" style="fill:#f1cd0d;fill-rule:evenodd"/>
            <path data-name="Path 15861" d="M737.422 1913.181c-.113 0-.113.208 0 .208.095 0 .093-.208 0-.208z" transform="translate(-704.477 -1862.506)" style="fill:#f5d722;fill-rule:evenodd"/>
            <path data-name="Path 15862" d="M737.208 1913.3c-.073 0-.216-.157-.216-.238s.142-.252.214-.252.207.174.207.252-.13.239-.207.239z" transform="translate(-704.262 -1862.274)" style="fill:#f1cd0d;fill-rule:evenodd"/>
            <path data-name="Path 15863" d="M738.38 1913.47c-.194 0-.194.207 0 .207.123 0 .121-.206 0-.206z" transform="translate(-705.034 -1862.686)" style="fill:#f5d722;fill-rule:evenodd"/>
            <path data-name="Path 15864" d="M738.169 1913.613a.251.251 0 0 1-.275-.235.285.285 0 0 1 .275-.239c.089 0 .232.175.232.239a.253.253 0 0 1-.232.235z" transform="translate(-704.823 -1862.48)" style="fill:#f1cd0d;fill-rule:evenodd"/>
            <path data-name="Path 15865" d="M739.615 1913.725c-.081 0-.081.207 0 .207.216 0 .214-.206 0-.206z" transform="translate(-705.854 -1862.844)" style="fill:#f5d722;fill-rule:evenodd"/>
            <path data-name="Path 15866" d="M739.389 1913.87c-.064 0-.2-.157-.2-.255 0-.06.132-.217.2-.217.207 0 .307.125.307.217a.279.279 0 0 1-.307.255z" transform="translate(-705.629 -1862.641)" style="fill:#f1cd0d;fill-rule:evenodd"/>
            <path data-name="Path 15867" d="M756.62 1911.048c-.113 0-.113.192 0 .192.093 0 .093-.191 0-.191z" transform="translate(-716.412 -1861.18)" style="fill:#f5d722;fill-rule:evenodd"/>
            <path data-name="Path 15868" d="M756.391 1911.125c-.1 0-.224-.158-.224-.239s.127-.25.224-.25c.068 0 .21.173.21.25s-.142.239-.21.239z" transform="translate(-716.184 -1860.923)" style="fill:#f1cd0d;fill-rule:evenodd"/>
            <path data-name="Path 15869" d="M756.751 1912.089c-.206 0-.206.1 0 .1.114 0 .112-.1 0-.1z" transform="translate(-716.451 -1861.827)" style="fill:#f5d722;fill-rule:evenodd"/>
            <path data-name="Path 15870" d="M757.706 1914.81c-.108 0-.108.223 0 .223s.1-.223 0-.223z" transform="translate(-717.09 -1863.519)" style="fill:#f5d722;fill-rule:evenodd"/>
            <path data-name="Path 15871" d="M757.505 1914.956c-.092 0-.2-.174-.2-.267s.111-.256.2-.256c.074 0 .215.175.215.256s-.142.267-.215.267z" transform="translate(-716.889 -1863.285)" style="fill:#f1cd0d;fill-rule:evenodd"/>
            <path data-name="Path 15872" d="M758.689 1914.81c-.215 0-.215.223 0 .223.087 0 .085-.223 0-.223z" transform="translate(-717.651 -1863.519)" style="fill:#f5d722;fill-rule:evenodd"/>
            <path data-name="Path 15873" d="M758.448 1914.956a.265.265 0 1 1 0-.522c.069 0 .207.175.207.256 0 .108-.106.267-.207.267z" transform="translate(-717.41 -1863.285)" style="fill:#f1cd0d;fill-rule:evenodd"/>
            <path data-name="Path 15874" d="M769.931 1912.637c-.208 0-.208.125 0 .125.1 0 .1-.125 0-.125z" transform="translate(-724.644 -1862.168)" style="fill:#f5d722;fill-rule:evenodd"/>
            <path data-name="Path 15875" d="M769.7 1912.658c-.289 0-.3-.158-.3-.19 0-.127.174-.207.3-.207.069 0 .219.125.219.207s-.151.191-.219.191z" transform="translate(-724.413 -1861.934)" style="fill:#f1cd0d;fill-rule:evenodd"/>
            <path data-name="Path 15876" d="M738.617 1910.625a.542.542 0 0 1-.235-.047.787.787 0 0 1-.313-.143.941.941 0 0 1-.323-.064.449.449 0 0 1-.291-.474 4.188 4.188 0 0 0 .246-.79l.078-.255a.115.115 0 0 1 .157-.077.113.113 0 0 1 .106.141l-.073.267a4.238 4.238 0 0 1-.255.8c.016.043.064.109.08.109.085.033.159.064.206.08.018-.081.042-.145.053-.206.033-.19.074-.3.154-.332.021.033.052.093.1.174l.057.016a.333.333 0 0 1-.017.109v.049a1.189 1.189 0 0 1-.073.251.387.387 0 0 0 .174.081.4.4 0 0 0 .206.032c.064-.032.1-.146.134-.348l.049.028-.134-.174c.02-.045.132-.076.2-.06s.159.191.159.234a.736.736 0 0 1-.275.556.259.259 0 0 1-.175.048z" transform="translate(-704.55 -1859.76)" style="fill:#f1cd0d;fill-rule:evenodd"/>
            <path data-name="Path 15877" d="M737.455 1911.713h-.033c-.324-.094-.515-.267-.515-.458 0-.11.09-.268.429-.332a.176.176 0 0 1 .174.109.136.136 0 0 1-.121.146c-.175.029-.2.093-.2.093a.517.517 0 0 0 .309.158.167.167 0 0 1 .085.174.124.124 0 0 1-.126.11z" transform="translate(-704.209 -1861.102)" style="fill:#f1cd0d;fill-rule:evenodd"/>
            <path data-name="Path 15878" d="M743.17 1912.45a.378.378 0 0 1-.19-.076c-.012.049-.235-.016-.235-.4a.62.62 0 0 1-.232-.077 1.046 1.046 0 0 1-.748.06.62.62 0 0 1-.264.239.14.14 0 0 1-.19-.064.138.138 0 0 1 .072-.19.384.384 0 0 0 .175-.141.416.416 0 0 1-.057-.223.341.341 0 0 1 0-.3.291.291 0 0 1 .38.239.674.674 0 0 1-.016.191.739.739 0 0 0 .413-.017.394.394 0 0 1-.057-.458.383.383 0 0 1 .5-.207.368.368 0 0 1 .246.393.4.4 0 0 1-.173.35c.061.03.1.08.157.1.078.267.11.267.15.267.051 0 .164-.175.164-.363v-.917c0-.158.275-.156.275 0v.916a.818.818 0 0 1-.324.665c-.016 0-.033.016-.049.016z" transform="translate(-706.937 -1860.986)" style="fill:#f1cd0d;fill-rule:evenodd"/>
            <path data-name="Path 15879" d="M747.453 1912.12a.151.151 0 0 1-.15-.142 3.564 3.564 0 0 1 .078-.6 3.2 3.2 0 0 0 .041-.522c0-.158.278-.157.278 0a3.849 3.849 0 0 1-.056.567c-.024.207-.056.43-.056.555a.137.137 0 0 1-.134.142z" transform="translate(-710.673 -1860.987)" style="fill:#f1cd0d;fill-rule:evenodd"/>
            <path data-name="Path 15880" d="M749.22 1912.931h.425c.38 0 .435.223.435.348l.119-.2a.586.586 0 0 0 .016-.222 1.451 1.451 0 0 1-.838-.064c-.025 0-.09.016-.127.016a.266.266 0 0 1-.032.125zm-.929.809a.148.148 0 0 1-.1-.048.137.137 0 0 1 .033-.207.762.762 0 0 0 .324-.4.609.609 0 0 1-.15-.127.327.327 0 0 1-.032-.315.323.323 0 0 1 .206-.093c.1 0 .2.109.266.283a.284.284 0 0 1 0 .094h.086s.04-.029.04-.186a.219.219 0 0 1-.069-.162c0-.094.1-.235.174-.235s.149.109.181.174h.186a1.042 1.042 0 0 0 .738.049c.249-.049.333.125.333.409a1.616 1.616 0 0 1-.069.222c-.072.191-.138.317-.264.35a.374.374 0 0 1-.324-.158c-.048-.142-.048-.175-.207-.175h-.72a.269.269 0 0 1-.118-.016 1.1 1.1 0 0 1-.425.506.111.111 0 0 1-.089.033z" transform="translate(-711.203 -1861.988)" style="fill:#f1cd0d;fill-rule:evenodd"/>
            <path data-name="Path 15881" d="M754.315 1913.514a.094.094 0 0 1-.077-.032.367.367 0 0 0-.206.016c-.084 0-.207-.064-.207-.125 0-.08-.016-.145.081-.145v.145l.069-.158c.04 0 .088-.016.153-.016a.352.352 0 0 1 .094-.271.284.284 0 0 1 .339-.077.349.349 0 0 1 .207.316c0 .206-.308.347-.454.347z" transform="translate(-714.727 -1862.285)" style="fill:#f1cd0d;fill-rule:evenodd"/>
            <path data-name="Path 15882" d="M756.917 1912.141a.3.3 0 0 1-.119-.016.266.266 0 0 1-.126-.191.628.628 0 0 1 .365-.283 2.146 2.146 0 0 0-.058-.806.132.132 0 0 1 .09-.174.139.139 0 0 1 .175.109 2.534 2.534 0 0 1 .076.949c.025 0 .207.08.215.08.1 0 .149-.048.165-.239-.079-.093-.149-.22-.116-.267.02-.065.149-.11.219-.1s.173.145.173.207c0 .032-.016.064-.016.1a.027.027 0 0 1 0 .045c-.016.4-.116.522-.425.522a.329.329 0 0 1-.331-.016c0-.017-.017-.016-.017-.029a.434.434 0 0 1-.272.11z" transform="translate(-716.497 -1860.943)" style="fill:#f1cd0d;fill-rule:evenodd"/>
            <path data-name="Path 15883" d="M760.348 1913.394a.1.1 0 0 1-.085-.049.126.126 0 0 1 0-.189.976.976 0 0 0 .217-.365.4.4 0 0 1-.274-.348c0-.061 0-.251.142-.315.15-.029.279.08.4.206a.977.977 0 0 1-.291 1.012.13.13 0 0 1-.106.049z" transform="translate(-718.695 -1861.848)" style="fill:#f1cd0d;fill-rule:evenodd"/>
            <path data-name="Path 15884" d="M762.206 1913.1a.182.182 0 0 1-.134-.076c-.024-.083 0-.175.076-.191a.345.345 0 0 0 .189-.142c-.221 0-.307-.081-.323-.19a.392.392 0 0 1 .207-.4.657.657 0 0 1 .235-.049c.113.047.174.174.191.364a3.809 3.809 0 0 0 1.234-.409.132.132 0 0 1 .191.029c.041.081.033.156-.048.19a3.154 3.154 0 0 1-1.394.445.544.544 0 0 1-.377.41.059.059 0 0 1-.047.016z" transform="translate(-719.815 -1861.761)" style="fill:#f1cd0d;fill-rule:evenodd"/>
            <path data-name="Path 15885" d="M764.724 1911.536a.435.435 0 0 1-.147-.028 1.043 1.043 0 0 1-.193-.4.431.431 0 0 0-.024.157.145.145 0 0 1-.288 0 .6.6 0 0 1 .223-.49.185.185 0 0 1-.017-.1l-.1-.392c-.008-.066.016-.159.085-.174a.128.128 0 0 1 .183.108l.106.413c0 .017.011.017.011.033a.52.52 0 0 1 .247.029.43.43 0 0 1 .259.365.377.377 0 0 1-.069.38.411.411 0 0 1-.275.094z" transform="translate(-721.098 -1860.593)" style="fill:#f1cd0d;fill-rule:evenodd"/>
            <path data-name="Path 15886" d="M767.176 1911.97a.417.417 0 0 1-.4-.268.6.6 0 0 1 .017-.239.6.6 0 0 1 .838-.109.387.387 0 0 1-.016.392.615.615 0 0 1-.441.223z" transform="translate(-722.777 -1861.295)" style="fill:#f1cd0d;fill-rule:evenodd"/>
            <path data-name="Path 15887" d="M768.25 1909.808a.415.415 0 0 1-.173-.033c-.239-.126-.357-.425-.357-.931 0-.093-.032-.175-.1-.175a.262.262 0 0 0-.28.066.176.176 0 0 1-.206 0 .131.131 0 0 1 0-.174.557.557 0 0 1 .6-.159.46.46 0 0 1 .243.443c0 .441.122.647.222.712h.133a.052.052 0 0 1 .016-.031c.026-.066.175-.223.249-.19.061.016.117.19.117.239a.666.666 0 0 1-.466.235z" transform="translate(-722.981 -1859.513)" style="fill:#f1cd0d;fill-rule:evenodd"/>
            <path data-name="Path 15888" d="m738.434 1871.788 8.921 8.26-.63-15.031c-.1-2.281-2.083-1.773-3.521-.947a36.03 36.03 0 0 1-9.753 0c-1.432-.826-3.417-1.333-3.507.947l-.648 15.031z" transform="translate(-699.477 -1831.538)" style="fill:#fefefe;fill-rule:evenodd"/>
            <path data-name="Path 15889" d="M731.1 1863.281c-.789 0-1.2.49-1.24 1.5l-.619 14.714 8.878-8.056a.13.13 0 0 1 .2 0l8.676 8.055-.631-14.714c-.066-1.709-1.394-1.915-3.31-.822a5.486 5.486 0 0 1-4.989.331 5.377 5.377 0 0 1-4.905-.331 4.515 4.515 0 0 0-2.057-.681zm-2.025 16.659h-.053a.146.146 0 0 1-.081-.141l.632-15.031c.065-1.455.87-1.771 1.527-1.771a5.2 5.2 0 0 1 2.206.709 5.248 5.248 0 0 0 4.756.316c2.057.636 3.527.538 4.848-.316a5.222 5.222 0 0 1 2.182-.709c.682 0 1.49.317 1.543 1.771l.632 15.031a.154.154 0 0 1-.069.141.2.2 0 0 1-.166-.016l-8.821-8.194-9.048 8.194c-.016.016-.042.016-.09.016z" transform="translate(-699.256 -1831.306)" style="fill:#f1cd0d;fill-rule:evenodd"/>
            <path data-name="Path 15890" d="M750.009 1857.334a2.454 2.454 0 0 0 1.353.317c-1.037-.747-1.353-2.705-1.24-3.528.2-1.666-.205-2.58-1.234-2.8a5.91 5.91 0 0 0-.738-.109c-.307-.1-.558.208-.679.409-.308-.2-.567-.077-.88-.3-.306-.11-.838 0-.838.729l.206-.081a2.484 2.484 0 0 1 .491.224 1.484 1.484 0 0 1 .761 1.093 4.579 4.579 0 0 1-1.458 4.366 2.368 2.368 0 0 0 1.336-.316 2.9 2.9 0 0 1-.5.632 1.882 1.882 0 0 0 1.442-.838c.119.206.409.522.53.725.118-.2.41-.519.531-.725a1.887 1.887 0 0 0 1.438.838 3.783 3.783 0 0 1-.522-.632z" transform="translate(-709.708 -1823.966)" style="fill:#fefefe;fill-rule:evenodd"/>
            <path data-name="Path 15891" d="m748.532 1856.661.125.189a1.515 1.515 0 0 0 .939.649c-.051-.078-.133-.174-.227-.316l.175-.192a1.952 1.952 0 0 0 .923.272 4.786 4.786 0 0 1-1.03-3.369c.192-1.617-.181-2.488-1.129-2.677-.076.048-.158-.012-.25-.045a1.738 1.738 0 0 0-.487-.048.616.616 0 0 0-.526.331l-.057.125-.117-.06a.647.647 0 0 0-.4-.141 1.145 1.145 0 0 1-.49-.175.457.457 0 0 0-.623.408 1.161 1.161 0 0 1 .511.19l.222.159a1.383 1.383 0 0 1 .7 1.076 4.735 4.735 0 0 1-1.267 4.225 1.907 1.907 0 0 0 .96-.272l.175.192a1.627 1.627 0 0 1-.24.316 1.523 1.523 0 0 0 .96-.648l.118-.19.1.189c.057.082.141.208.246.333a1.122 1.122 0 0 1 .166.207 2.129 2.129 0 0 1 .158-.207c.087-.126.191-.251.252-.332l.106-.19zm-2.864 1.267.291-.288a1.258 1.258 0 0 1 .207-.2 3.32 3.32 0 0 1-.96.11h-.332l.264-.238a4.376 4.376 0 0 0 1.392-4.24 1.144 1.144 0 0 0-.572-.9l-.149-.1a1.848 1.848 0 0 0-.414-.2l-.307.14v-.189c0-.839.611-1 1-.854a1.054 1.054 0 0 0 .413.159 1.532 1.532 0 0 1 .393.093.777.777 0 0 1 .587-.393 2.255 2.255 0 0 1 .648.111.88.88 0 0 0 .207.016c1.122.237 1.568 1.219 1.345 2.972-.09.838.234 2.705 1.2 3.369l.356.255h-.429a3.211 3.211 0 0 1-.94-.109 2.414 2.414 0 0 1 .19.219l.3.255-.413-.049a2.126 2.126 0 0 1-1.407-.728c-.047.064-.113.129-.165.206a2.812 2.812 0 0 0-.248.332l-.116.206-.122-.206a3.8 3.8 0 0 0-.236-.332 2.4 2.4 0 0 0-.174-.206 2.154 2.154 0 0 1-1.409.729z" transform="translate(-709.162 -1823.737)" style="fill:#f1cd0d;fill-rule:evenodd"/>
            <path data-name="Path 15892" d="M756.008 1864.236a.17.17 0 0 1-.135-.076 4.5 4.5 0 0 1-.6-2.139c0-.141.275-.141.275 0a4.063 4.063 0 0 0 .579 2.01.157.157 0 0 1-.064.19c-.015.015-.021.017-.053.017z" transform="translate(-715.625 -1830.633)" style="fill:#f1cd0d;fill-rule:evenodd"/>
            <path data-name="Path 15893" d="M753.826 1863.936a.126.126 0 0 1-.122-.064 3.657 3.657 0 0 1-.341-1.851c0-.141.281-.141.281 0a3.571 3.571 0 0 0 .291 1.71.129.129 0 0 1-.11.207z" transform="translate(-714.44 -1830.633)" style="fill:#f1cd0d;fill-rule:evenodd"/>
            <path data-name="Path 15894" d="M748.927 1864.236a.1.1 0 0 1-.065-.015.142.142 0 0 1-.053-.19 4.1 4.1 0 0 0 .567-2.01c0-.141.279-.141.279 0a4.34 4.34 0 0 1-.6 2.139.148.148 0 0 1-.126.077z" transform="translate(-711.6 -1830.633)" style="fill:#f1cd0d;fill-rule:evenodd"/>
            <path data-name="Path 15895" d="M751.561 1863.936a.134.134 0 0 1-.073-.015.154.154 0 0 1-.045-.191 3.582 3.582 0 0 0 .308-1.71c0-.141.268-.141.268 0a3.8 3.8 0 0 1-.325 1.851.152.152 0 0 1-.133.065z" transform="translate(-713.236 -1830.633)" style="fill:#f1cd0d;fill-rule:evenodd"/>
            <path data-name="Path 15896" d="M745.966 1853.087a1.754 1.754 0 0 1 .616.24 1.454 1.454 0 0 1 .761 1.013c-.122-.334.1-.633.323-.523a1.436 1.436 0 0 0-1.7-.729z" transform="translate(-709.841 -1825.101)" style="fill:#f1cd0d;fill-rule:evenodd"/>
            <path data-name="Path 15897" d="M746.154 1852.968a.868.868 0 0 1 .283.1l.142.093a1.531 1.531 0 0 1 .672.665c.032-.044.065-.109.1-.109a.238.238 0 0 1 .2-.111 1.457 1.457 0 0 0-1.4-.635zm1.163 1.3a.124.124 0 0 1-.065-.031v-.018a.465.465 0 0 1-.025-.125 1.416 1.416 0 0 0-.7-.822l-.117-.129-.049.048a.842.842 0 0 0-.434-.157.366.366 0 0 1 .4-.207 1.492 1.492 0 0 1 1.377.838c.013.017-.041.033-.057.049h-.089c-.182.125-.2.24-.187.35a.054.054 0 0 1-.016.047c.021.033.021.079.037.094 0 .033-.017.065-.053.065z" transform="translate(-709.814 -1824.982)" style="fill:#f1cd0d;fill-rule:evenodd"/>
            <path data-name="Path 15898" d="m750.865 1889.97 1.244 5.677-.413.429-.417-.332-.706-5.079.292 5.079-.409.54-.413-.54.291-5.079-.7 5.079-.429.332-.409-.429 1.247-5.677z" transform="translate(-711.601 -1848.075)" style="fill:#f1cd0d;fill-rule:evenodd"/>
            <path data-name="Path 15899" d="m750.6 1889.752-.7.093-1.13 5.6.38.3.267-.333.672-5 .223.015.214-.015.724 5.08.382.237.258-.411-1.288-5.57zm-.29.774.323 4.921-.323.414-.293-.35.293-4.985zm0 5.7-.5-.637.125-2.434-.333 2.373-.474.394-.571-.424 1.22-5.794.94-.109 1.36 5.792-.433.535-.6-.316-.359-2.5.149 2.406z" transform="translate(-711.452 -1847.841)" style="fill:#f1cd0d;fill-rule:evenodd"/>
            <path data-name="Path 15900" d="m730.973 1866.293-.616 14.634-1.061.937.648-15.031a2.768 2.768 0 0 1 1.028-.539z" transform="translate(-699.477 -1833.354)" style="fill:#f1cd0d;fill-rule:evenodd"/>
            <path data-name="Path 15901" d="m734.44 1867.724-.522 12.228-1.045 1.077.636-14.143c.2.206.82.725.93.838z" transform="translate(-701.702 -1833.723)" style="fill:#f1cd0d;fill-rule:evenodd"/>
            <path data-name="Path 15902" d="m737.976 1870.551-.409 10.206-.838.821.521-11.644c.194.207.608.507.726.616z" transform="translate(-704.098 -1835.619)" style="fill:#f1cd0d;fill-rule:evenodd"/>
            <path data-name="Path 15903" d="m741.26 1872.423-.413 8.688-.822.664.413-9.668a3.66 3.66 0 0 0 .822.318z" transform="translate(-706.148 -1836.969)" style="fill:#f1cd0d;fill-rule:evenodd"/>
            <path data-name="Path 15904" d="m744.427 1872.943-.291 7.262-.846.807.316-7.97c.207 0 .737 0 .822-.1z" transform="translate(-708.178 -1837.489)" style="fill:#f1cd0d;fill-rule:evenodd"/>
            <path data-name="Path 15905" d="m772.627 1866.293.625 14.634 1.043.937-.63-15.031a2.8 2.8 0 0 0-1.038-.539z" transform="translate(-726.417 -1833.354)" style="fill:#f1cd0d;fill-rule:evenodd"/>
            <path data-name="Path 15906" d="m769.327 1867.724.528 12.228 1.044.936-.632-14c-.206.206-.823.725-.94.838z" transform="translate(-724.365 -1833.723)" style="fill:#f1cd0d;fill-rule:evenodd"/>
            <path data-name="Path 15907" d="m766.33 1870.551.429 10.206.822.647-.529-11.47c-.207.207-.617.507-.723.616z" transform="translate(-722.501 -1835.619)" style="fill:#f1cd0d;fill-rule:evenodd"/>
            <path data-name="Path 15908" d="m763.077 1872.423.409 8.531.822.681-.409-9.528a3.477 3.477 0 0 1-.823.318z" transform="translate(-720.479 -1836.969)" style="fill:#f1cd0d;fill-rule:evenodd"/>
            <path data-name="Path 15909" d="m760.034 1872.943.312 7.262.839.807-.325-7.97c-.207 0-.737 0-.827-.1z" transform="translate(-718.588 -1837.489)" style="fill:#f1cd0d;fill-rule:evenodd"/>
            <path data-name="Path 15910" d="m741.673 1883.361-2.483 8.814 3.425.5 1.455-6.629z" transform="translate(-705.629 -1843.966)" style="fill:#fefefe;fill-rule:evenodd"/>
            <path data-name="Path 15911" d="m739.148 1891.814 3.143.49 1.438-6.517-2.2-2.421-2.382 8.449zm3.26.759h-.016l-3.417-.522a.2.2 0 0 1-.1-.064.131.131 0 0 1-.016-.077l2.492-8.832c.016-.059.047-.092.088-.092a.194.194 0 0 1 .134.033l2.4 2.717-1.425 6.739a.15.15 0 0 1-.135.1z" transform="translate(-705.421 -1843.734)" style="fill:#f1cd0d;fill-rule:evenodd"/>
            <path data-name="Path 15912" d="m756.654 1883.361 2.484 8.814-3.424.5-1.449-6.629z" transform="translate(-715.001 -1843.966)" style="fill:#fefefe;fill-rule:evenodd"/>
            <path data-name="Path 15913" d="m756.38 1883.38-2.23 2.515 1.453 6.408 3.147-.49-2.37-8.434zm-.887 9.193a.11.11 0 0 1-.113-.094l-1.471-6.643 2.44-2.815c.031-.034.068-.033.116-.033s.074.045.085.093l2.5 8.829a.133.133 0 0 1-.017.078.293.293 0 0 1-.105.064l-3.406.521a.294.294 0 0 1-.033 0z" transform="translate(-714.78 -1843.734)" style="fill:#f1cd0d;fill-rule:evenodd"/>
            <path data-name="Path 15914" d="M743.671 1891.392h-.021a.119.119 0 0 1-.112-.093l-.3-.715a.135.135 0 0 1 .072-.172.13.13 0 0 1 .187.064l.224.534.789-.872a.107.107 0 0 1 .174 0 .1.1 0 0 1 .016.175l-.939 1.045a.174.174 0 0 1-.09.032z" transform="translate(-708.142 -1848.152)" style="fill:#f1cd0d;fill-rule:evenodd"/>
            <path data-name="Path 15915" d="M746.674 1889.947h-.033c-.056-.011-.106-.043-.106-.109l-.324-2.9a.158.158 0 0 1 .138-.157c.069-.018.133.049.15.125l.275 2.547.824-1.058a.127.127 0 0 1 .189-.031.139.139 0 0 1 .032.189l-1.029 1.362a.212.212 0 0 1-.116.027z" transform="translate(-709.994 -1846.093)" style="fill:#f1cd0d;fill-rule:evenodd"/>
            <path data-name="Path 15916" d="M749.469 1894.112a.249.249 0 0 1-.134-.081l-.6-1.58c-.025-.033 0-.125.068-.157a.135.135 0 0 1 .182.077l.62 1.534a.15.15 0 0 1-.081.191c-.008.016-.024.017-.057.017z" transform="translate(-711.558 -1849.512)" style="fill:#f1cd0d;fill-rule:evenodd"/>
            <path data-name="Path 15917" d="M744.117 1897.075h-.04a.156.156 0 0 1-.093-.08l-.429-1.362-.349.647c-.031.049-.085.115-.117.082a.183.183 0 0 1-.133-.1l-.349-.851-.777.694a.123.123 0 0 1-.2 0c-.041-.062-.041-.158.012-.187l.912-.838c.048-.016.088-.032.117-.016a.106.106 0 0 1 .106.077l.325.761.364-.7a.185.185 0 0 1 .133-.049c.065 0 .1.016.117.081l.454 1.455.692-.7a.142.142 0 0 1 .19 0 .187.187 0 0 1 0 .206l-.854.837a.13.13 0 0 1-.086.033z" transform="translate(-707.13 -1851.24)" style="fill:#f1cd0d;fill-rule:evenodd"/>
            <path data-name="Path 15918" d="M744.065 1900.963a.145.145 0 0 1-.15-.112l-.263-1.263-.632.8a.106.106 0 0 1-.134.051c-.04 0-.089-.051-.1-.1l-.335-1.013-.575.729c-.024.048-.057.049-.118.066a.237.237 0 0 1-.113-.1l-.631-1.552a.128.128 0 0 1 .072-.173.117.117 0 0 1 .174.081l.559 1.328.587-.762a.144.144 0 0 1 .118-.044.153.153 0 0 1 .117.094l.324 1.012.66-.855a.167.167 0 0 1 .149-.043.184.184 0 0 1 .1.109l.308 1.567a.15.15 0 0 1-.1.174h-.016z" transform="translate(-706.753 -1853.245)" style="fill:#f1cd0d;fill-rule:evenodd"/>
            <path data-name="Path 15919" d="M743.066 1905.333a.056.056 0 0 1-.034-.016.086.086 0 0 1-.085-.08l-.332-.965-.462.789a.091.091 0 0 1-.135.049.113.113 0 0 1-.11-.077l-.428-1.142-.474.665a.144.144 0 0 1-.191.032.177.177 0 0 1-.032-.207l.62-.838a.168.168 0 0 1 .133-.061.116.116 0 0 1 .1.093l.43 1.11.465-.811a.153.153 0 0 1 .133-.061.148.148 0 0 1 .122.077l.356 1.061.466-.4a.158.158 0 0 1 .206.032.128.128 0 0 1-.017.175l-.652.537a.15.15 0 0 1-.086.034z" transform="translate(-706.607 -1856.476)" style="fill:#f1cd0d;fill-rule:evenodd"/>
            <path data-name="Path 15920" d="M760.219 1891.392a.154.154 0 0 1-.1-.032l-.942-1.046a.121.121 0 0 1 .015-.173.123.123 0 0 1 .191 0l.791.871.2-.536a.142.142 0 0 1 .2-.063.137.137 0 0 1 .072.173l-.311.712a.107.107 0 0 1-.1.094z" transform="translate(-718.036 -1848.153)" style="fill:#f1cd0d;fill-rule:evenodd"/>
            <path data-name="Path 15921" d="M757.01 1889.948a.275.275 0 0 1-.118-.027l-1.036-1.362a.132.132 0 0 1 .024-.189.114.114 0 0 1 .187.032l.838 1.056.272-2.548a.122.122 0 0 1 .142-.125.127.127 0 0 1 .116.158l-.276 2.895a.189.189 0 0 1-.1.11z" transform="translate(-715.972 -1846.094)" style="fill:#f1cd0d;fill-rule:evenodd"/>
            <path data-name="Path 15922" d="M755.426 1894.112c-.016 0-.047 0-.061-.016a.142.142 0 0 1-.073-.19l.615-1.536a.124.124 0 0 1 .175-.076c.074.032.106.125.074.157l-.6 1.58c-.029.032-.07.081-.127.081z" transform="translate(-715.632 -1849.512)" style="fill:#f1cd0d;fill-rule:evenodd"/>
            <path data-name="Path 15923" d="M756.53 1897.074a.166.166 0 0 1-.089-.033l-.822-.838a.147.147 0 0 1 0-.206.153.153 0 0 1 .2 0l.639.68.357-1.438a.111.111 0 0 1 .109-.081.108.108 0 0 1 .138.049l.483.723.323-.789a.11.11 0 0 1 .086-.076.184.184 0 0 1 .137.016l.924.838c.065.028.081.109.016.187a.119.119 0 0 1-.191 0l-.789-.694-.356.851a.132.132 0 0 1-.118.1.147.147 0 0 1-.122-.065l-.432-.681-.341 1.362a.13.13 0 0 1-.106.1z" transform="translate(-715.817 -1851.239)" style="fill:#f1cd0d;fill-rule:evenodd"/>
            <path data-name="Path 15924" d="M757.072 1900.962h-.034a.151.151 0 0 1-.106-.174l.313-1.566a.125.125 0 0 1 .1-.11.121.121 0 0 1 .142.06l.664.838.324-1.012a.146.146 0 0 1 .113-.094.2.2 0 0 1 .134.044l.575.761.54-1.328a.143.143 0 0 1 .27.093l-.635 1.55a.173.173 0 0 1-.1.1.145.145 0 0 1-.133-.066l-.571-.729-.34 1.011c-.017.049-.057.1-.1.1a.106.106 0 0 1-.13-.05l-.631-.8-.267 1.264a.147.147 0 0 1-.127.112z" transform="translate(-716.658 -1853.244)" style="fill:#f1cd0d;fill-rule:evenodd"/>
            <path data-name="Path 15925" d="M758.219 1905.333a.239.239 0 0 1-.089-.033l-.631-.539c-.074-.033-.074-.108-.026-.174a.161.161 0 0 1 .208-.032l.48.4.333-1.061a.155.155 0 0 1 .117-.077c.05 0 .122.016.134.061l.478.811.417-1.112a.134.134 0 0 1 .106-.092.164.164 0 0 1 .134.061l.615.838a.154.154 0 0 1-.032.207.146.146 0 0 1-.19-.032l-.464-.665-.426 1.141c-.016.062-.065.078-.123.078-.052.032-.1 0-.133-.048l-.449-.775-.323.948a.125.125 0 0 1-.091.082c-.015 0-.027.016-.044.016z" transform="translate(-716.974 -1856.476)" style="fill:#f1cd0d;fill-rule:evenodd"/>
            <path data-name="Path 15926" d="M746.707 1869.935a5.652 5.652 0 0 0 3.944 1.139c-.118 3.624-1.146 6.108-3.945 7.974-2.81-1.868-3.835-4.35-3.94-7.974a5.635 5.635 0 0 0 3.94-1.139z" transform="translate(-707.851 -1835.619)" style="fill:#fefefe;fill-rule:evenodd"/>
            <path data-name="Path 15927" d="M742.591 1871.02c.215 3.668 1.377 6.01 3.948 7.768 2.586-1.759 3.743-4.1 3.843-7.866-.04.113-.19.114-.323.114a5.742 5.742 0 0 1-3.584-1.187 5.024 5.024 0 0 1-3.447 1.187 3.851 3.851 0 0 1-.437-.015zm3.949 7.986c-.017 0-.049-.016-.065-.016-2.665-1.8-3.86-4.208-3.977-8.068a1.008 1.008 0 0 1 .53-.077 5.431 5.431 0 0 0 3.447-1.154 6.106 6.106 0 0 0 3.992 1.139c-.011 3.952-1.2 6.357-3.875 8.16a.174.174 0 0 0-.053.016z" transform="translate(-707.685 -1835.467)" style="fill:#f1cd0d;fill-rule:evenodd"/>
            <path data-name="Path 15928" d="M747.212 1879.3c2.182-1.437 3.417-3.919 3.535-7.245a5.492 5.492 0 0 1-3.537-1.025 5.806 5.806 0 0 1-3.632 1.025c.206 3.324 1.459 5.808 3.632 7.246z" transform="translate(-708.357 -1836.297)" style="fill:#f1cd0d;fill-rule:evenodd"/>
            <path data-name="Path 15929" d="M743.506 1871.943c.24 3.164 1.441 5.569 3.5 7.008 2.079-1.439 3.273-3.844 3.395-7.007a5.755 5.755 0 0 1-3.395-.968 5.92 5.92 0 0 1-3.5.968zm3.5 7.278a.362.362 0 0 1-.074-.015c-2.206-1.487-3.48-4.035-3.685-7.359a.169.169 0 0 1 .04-.109.09.09 0 0 1 .085-.049 5.611 5.611 0 0 0 3.544-1 .138.138 0 0 1 .173.016 5.436 5.436 0 0 0 3.452.98.1.1 0 0 1 .085.049.14.14 0 0 1 .047.109c-.116 3.308-1.368 5.873-3.6 7.359-.014 0-.045.016-.069.016z" transform="translate(-708.152 -1836.075)" style="fill:#f1cd0d;fill-rule:evenodd"/>
            <path data-name="Path 15930" d="M739.168 1905.761a11.314 11.314 0 0 0 2.5.093c.409 0 .7.713-.1.838a9.877 9.877 0 0 1-2.5-.125c-.522-.1-1.659-.3-2.389-.506-.718-.3-.2-.936.205-.838a16.024 16.024 0 0 0 2.289.538z" transform="translate(-703.841 -1857.552)" style="fill:#fefefe;fill-rule:evenodd"/>
            <path data-name="Path 15931" d="M736.6 1905.119a.38.38 0 0 0-.381.24c-.049.174.158.267.275.333.721.2 1.867.408 2.365.489a9.446 9.446 0 0 0 2.439.126c.267-.032.409-.159.393-.3a.292.292 0 0 0-.26-.271 9.515 9.515 0 0 1-2.524-.11 12.69 12.69 0 0 1-2.307-.506zm4.009 1.486a10.618 10.618 0 0 1-1.8-.141c-.506-.093-1.67-.316-2.4-.522-.5-.206-.487-.507-.461-.631a.645.645 0 0 1 .6-.49 16.123 16.123 0 0 0 2.4.539 11.6 11.6 0 0 0 2.466.126.567.567 0 0 1 .562.508c.01.234-.149.5-.635.566a5.265 5.265 0 0 1-.733.049z" transform="translate(-703.609 -1857.307)" style="fill:#f1cd0d;fill-rule:evenodd"/>
            <path data-name="Path 15932" d="M757.738 1905.761a11.384 11.384 0 0 1-2.5.093c-.421 0-.712.713.093.838a9.821 9.821 0 0 0 2.492-.125c.531-.1 1.661-.3 2.4-.506.729-.3.205-.936-.207-.838a15.557 15.557 0 0 1-2.276.538z" transform="translate(-715.347 -1857.552)" style="fill:#fefefe;fill-rule:evenodd"/>
            <path data-name="Path 15933" d="M755 1905.772a.348.348 0 0 0-.288.271c0 .14.151.268.413.3a9.495 9.495 0 0 0 2.45-.126c.491-.081 1.65-.287 2.382-.489.09-.065.28-.158.256-.333a.365.365 0 0 0-.341-.239 14.691 14.691 0 0 1-2.349.507 9.526 9.526 0 0 1-2.524.11zm.823.869a4.669 4.669 0 0 1-.723-.047c-.5-.062-.664-.333-.648-.566a.568.568 0 0 1 .555-.506 11.5 11.5 0 0 0 2.467-.126 14.584 14.584 0 0 0 2.264-.507.612.612 0 0 1 .732.458c.034.125.042.425-.424.631-.762.205-1.925.429-2.423.522a10.806 10.806 0 0 1-1.8.143z" transform="translate(-715.117 -1857.344)" style="fill:#f1cd0d;fill-rule:evenodd"/>
            <path data-name="Path 15934" d="M735.715 1905.546c-.624-.127-.932.6-.729 1.028.106-.222.53-.222.62-.425.11-.32-.089-.32.109-.6z" transform="translate(-702.976 -1857.75)" style="fill:#fefefe;fill-rule:evenodd"/>
            <path data-name="Path 15935" d="M735.256 1905.424a.449.449 0 0 0-.324.24.689.689 0 0 0-.1.38.919.919 0 0 1 .191-.08c.1-.049.206-.077.217-.143a.2.2 0 0 0 .017-.19.883.883 0 0 1 0-.207zm-.5 1.013a.156.156 0 0 1-.118-.078.9.9 0 0 1 .056-.854.8.8 0 0 1 .665-.4c.045.016.158.05.174.111.033.031.085.1.077.128a.262.262 0 0 0-.077.219.549.549 0 0 1-.033.348c-.072.19-.247.239-.38.3-.1.044-.223.093-.235.142s-.057.094-.13.078z" transform="translate(-702.748 -1857.487)" style="fill:#f1cd0d;fill-rule:evenodd"/>
            <path data-name="Path 15936" d="M743.046 1908.463c0-.431.414-.365.414-.779 0-.2-.106-.517-.308-.517a.436.436 0 0 0-.413.424c-.1.4.307.442.307.872z" transform="translate(-707.825 -1858.766)" style="fill:#fefefe;fill-rule:evenodd"/>
            <path data-name="Path 15937" d="M742.917 1907.067a.3.3 0 0 0-.28.284.423.423 0 0 0 .105.364.7.7 0 0 1 .085.111c.033-.049.08-.06.106-.093a.313.313 0 0 0 .165-.288c0-.174-.112-.376-.181-.376zm-.105 1.3a.136.136 0 0 1-.125-.141.522.522 0 0 0-.151-.333.657.657 0 0 1-.174-.587.576.576 0 0 1 .556-.522c.308 0 .457.4.457.663a.62.62 0 0 1-.255.5.312.312 0 0 0-.158.284.148.148 0 0 1-.15.141z" transform="translate(-707.59 -1858.527)" style="fill:#f1cd0d;fill-rule:evenodd"/>
            <path data-name="Path 15938" d="M750.967 1907.455c.6 0 .542.822.25 1.235 0-.288-.53-.413-.53-.6 0-.317.471-.316.28-.632z" transform="translate(-712.776 -1858.946)" style="fill:#fefefe;fill-rule:evenodd"/>
            <path data-name="Path 15939" d="M750.931 1907.393a.444.444 0 0 1-.183.268c-.09.063-.134.113-.134.19a.947.947 0 0 0 .167.109 1.611 1.611 0 0 1 .233.19.894.894 0 0 0 .01-.632.255.255 0 0 0-.095-.125zm.069 1.2a.061.061 0 0 1-.049-.016c-.051 0-.085-.064-.085-.125 0-.081-.133-.162-.251-.255s-.279-.206-.279-.349a.481.481 0 0 1 .239-.409c-.032-.049 0-.175.016-.222s.1-.143.159-.143a.569.569 0 0 1 .531.317 1.315 1.315 0 0 1-.159 1.154.183.183 0 0 1-.122.048z" transform="translate(-712.558 -1858.711)" style="fill:#f1cd0d;fill-rule:evenodd"/>
            <path data-name="Path 15940" d="M769.327 1905.546a.716.716 0 0 1 .734 1.028c-.093-.222-.531-.222-.617-.425-.117-.32.086-.32-.117-.6z" transform="translate(-724.365 -1857.75)" style="fill:#fefefe;fill-rule:evenodd"/>
            <path data-name="Path 15941" d="M769.338 1905.433a.936.936 0 0 1 0 .223.314.314 0 0 0 .016.206c.017.049.133.078.239.127a.747.747 0 0 1 .175.08.554.554 0 0 0-.1-.38.486.486 0 0 0-.331-.256zm.506 1.029a.164.164 0 0 1-.135-.078c-.016-.05-.133-.1-.238-.141-.134-.065-.308-.114-.377-.288a.773.773 0 0 1-.031-.364c.016-.061.016-.093-.058-.219a.119.119 0 0 1-.016-.128.16.16 0 0 1 .09-.095.813.813 0 0 1 .822.382.872.872 0 0 1 .056.854.107.107 0 0 1-.112.078z" transform="translate(-724.148 -1857.511)" style="fill:#f1cd0d;fill-rule:evenodd"/>
            <path data-name="Path 15942" d="M762.082 1908.463c0-.431-.409-.365-.409-.779 0-.2.118-.517.325-.517a.437.437 0 0 1 .409.424c.09.4-.324.442-.324.872z" transform="translate(-719.607 -1858.766)" style="fill:#fefefe;fill-rule:evenodd"/>
            <path data-name="Path 15943" d="M761.778 1907.067c-.089 0-.191.2-.191.377a.342.342 0 0 0 .158.288c.033.033.08.044.1.093.033-.049.064-.077.09-.111a.331.331 0 0 0 .109-.347.314.314 0 0 0-.267-.3zm.085 1.3a.142.142 0 0 1-.134-.141.337.337 0 0 0-.158-.284.632.632 0 0 1-.251-.5c0-.268.149-.663.458-.663a.6.6 0 0 1 .559.57.634.634 0 0 1-.195.539.507.507 0 0 0-.129.333.154.154 0 0 1-.15.141z" transform="translate(-719.387 -1858.527)" style="fill:#f1cd0d;fill-rule:evenodd"/>
            <path data-name="Path 15944" d="M754.177 1907.455c-.619 0-.556.822-.264 1.235 0-.288.53-.413.53-.6 0-.317-.474-.316-.267-.632z" transform="translate(-714.649 -1858.946)" style="fill:#fefefe;fill-rule:evenodd"/>
            <path data-name="Path 15945" d="M753.744 1907.393a.348.348 0 0 0-.1.126.8.8 0 0 0 .029.632.85.85 0 0 1 .215-.19.755.755 0 0 0 .165-.109c0-.077-.048-.125-.133-.19a.449.449 0 0 1-.175-.267zm-.073 1.2a.169.169 0 0 1-.118-.048 1.24 1.24 0 0 1-.158-1.154.549.549 0 0 1 .539-.317.186.186 0 0 1 .117.062.173.173 0 0 1-.016.158c.166.222.291.331.291.554 0 .141-.141.255-.275.349-.116.091-.239.174-.239.255a.113.113 0 0 1-.1.125.053.053 0 0 1-.041.016z" transform="translate(-714.406 -1858.711)" style="fill:#f1cd0d;fill-rule:evenodd"/>
            <path data-name="Path 15946" d="M737.562 1906.113a.915.915 0 0 1 .616.208z" transform="translate(-704.616 -1858.111)" style="fill:#fefefe;fill-rule:evenodd"/>
            <path data-name="Path 15947" d="M738.037 1906.22c-.008 0-.026 0-.026-.015l-.614-.19c-.05-.016-.073-.061-.057-.094a.081.081 0 0 1 .08-.092 1.089 1.089 0 0 1 .7.25.082.082 0 0 1 0 .11.131.131 0 0 1-.08.032z" transform="translate(-704.475 -1857.935)" style="fill:#f1cd0d;fill-rule:evenodd"/>
            <path data-name="Path 15948" d="M740.283 1906.905a2.249 2.249 0 0 1 .724.208z" transform="translate(-706.308 -1858.604)" style="fill:#fefefe;fill-rule:evenodd"/>
            <path data-name="Path 15949" d="M740.847 1907.078a.016.016 0 0 1-.016-.016l-.732-.2a.112.112 0 0 1-.074-.113c.024-.158.586-.032.878.142a.085.085 0 0 1 .041.114.12.12 0 0 1-.1.077z" transform="translate(-706.148 -1858.461)" style="fill:#f1cd0d;fill-rule:evenodd"/>
            <path data-name="Path 15950" d="M748.979 1908c-.218 0-.632 0-.734.11z" transform="translate(-711.258 -1859.283)" style="fill:#fefefe;fill-rule:evenodd"/>
            <path data-name="Path 15951" d="M748.065 1908.055a.166.166 0 0 1-.105-.064c-.012-.018 0-.064.033-.1.114-.111.4-.111.806-.111.041 0 .089.016.089.065a.166.166 0 0 1-.073.125l-.732.08z" transform="translate(-711.078 -1859.151)" style="fill:#f1cd0d;fill-rule:evenodd"/>
            <path data-name="Path 15952" d="M745.95 1907.859a.834.834 0 0 0-.734 0z" transform="translate(-709.375 -1859.145)" style="fill:#fefefe;fill-rule:evenodd"/>
            <path data-name="Path 15953" d="M745.795 1907.763h-.734a.1.1 0 0 1-.089-.079.083.083 0 0 1 .048-.111c.192-.094.6-.234.847 0a.167.167 0 0 1 .017.127.122.122 0 0 1-.09.063z" transform="translate(-709.22 -1858.94)" style="fill:#f1cd0d;fill-rule:evenodd"/>
            <path data-name="Path 15954" d="M767.767 1906.113a.973.973 0 0 0-.62.208z" transform="translate(-723.01 -1858.111)" style="fill:#fefefe;fill-rule:evenodd"/>
            <path data-name="Path 15955" d="M766.995 1906.22c-.029 0-.053-.031-.071-.047s-.032-.079.018-.111a1.182 1.182 0 0 1 .671-.233.09.09 0 0 1 .1.092.1.1 0 0 1-.061.094l-.627.189c0 .017-.017.018-.032.018z" transform="translate(-722.858 -1857.935)" style="fill:#f1cd0d;fill-rule:evenodd"/>
            <path data-name="Path 15956" d="M764.878 1906.905a2.323 2.323 0 0 0-.722.208z" transform="translate(-721.15 -1858.604)" style="fill:#fefefe;fill-rule:evenodd"/>
            <path data-name="Path 15957" d="M764 1907.078c-.049 0-.07-.031-.086-.077s0-.113.037-.113c.32-.176.838-.3.87-.142a.091.091 0 0 1-.069.113l-.719.2c-.016.016-.017.016-.033.016z" transform="translate(-720.99 -1858.46)" style="fill:#f1cd0d;fill-rule:evenodd"/>
            <path data-name="Path 15958" d="M756.167 1908c.224 0 .632 0 .73.11z" transform="translate(-716.184 -1859.283)" style="fill:#fefefe;fill-rule:evenodd"/>
            <path data-name="Path 15959" d="m756.744 1908.055-.73-.082a.116.116 0 0 1-.093-.124c0-.05.045-.065.093-.065.431 0 .69 0 .808.111a.1.1 0 0 1 .031.1.136.136 0 0 1-.11.065z" transform="translate(-716.031 -1859.151)" style="fill:#f1cd0d;fill-rule:evenodd"/>
            <path data-name="Path 15960" d="M759.182 1907.859a.837.837 0 0 1 .735 0z" transform="translate(-718.058 -1859.145)" style="fill:#fefefe;fill-rule:evenodd"/>
            <path data-name="Path 15961" d="M759.772 1907.763h-.737a.126.126 0 0 1-.087-.062.143.143 0 0 1 .032-.127c.243-.235.656-.093.839 0a.088.088 0 0 1 .036.111.079.079 0 0 1-.085.079z" transform="translate(-717.911 -1858.94)" style="fill:#f1cd0d;fill-rule:evenodd"/>
            <path data-name="Path 15962" d="M752.765 1852.188a1.6 1.6 0 0 0-1.081-1.044 4.356 4.356 0 0 0-.827-.047c-.307-.079-.568.255-.672.456.313.223.38.446.539.522.323.112.473 0 .8-.3a.785.785 0 0 1 1.24.413z" transform="translate(-712.464 -1823.9)" style="fill:#f1cd0d;fill-rule:evenodd"/>
            <path data-name="Path 15963" d="M750.763 1851.051a.729.729 0 0 0-.612.427.624.624 0 0 1 .34.255.814.814 0 0 0 .191.175c.271.091.38.032.721-.288a.841.841 0 0 1 .989-.029 1.5 1.5 0 0 0-.782-.477 1.953 1.953 0 0 0-.5-.062h-.348zm.109 1.028a.519.519 0 0 1-.249-.062c-.084-.018-.149-.109-.218-.206a2.382 2.382 0 0 0-.34-.317c.045-.19.284-.583.616-.583l.283.015a1.89 1.89 0 0 1 .672.063 1.57 1.57 0 0 1 1.045.885c-.408-.271-.923-.429-1.195-.157-.235.221-.393.364-.615.364z" transform="translate(-712.39 -1823.791)" style="fill:#f1cd0d;fill-rule:evenodd"/>
            <path data-name="Path 15964" d="M751.546 1851.908a.158.158 0 0 0 0 .315.158.158 0 0 0 0-.315z" transform="translate(-713.221 -1824.411)" style="fill:#fefefe;fill-rule:evenodd"/>
            <path data-name="Path 15965" d="M751.3 1852.177a.3.3 0 0 1-.292-.3c0-.338.6-.337.6 0a.3.3 0 0 1-.308.3z" transform="translate(-712.976 -1824.235)" style="fill:#fefefe;fill-rule:evenodd"/>
            <path data-name="Path 15966" d="M752.355 1871.7v6.536a6.054 6.054 0 0 1-1.257 1.057 6.164 6.164 0 0 1-1.267-1.057v-6.549a5.487 5.487 0 0 0 1.266-.665 4.226 4.226 0 0 0 1.256.678z" transform="translate(-712.245 -1836.297)" style="fill:#fefefe;fill-rule:evenodd"/>
        </g>
    </g>
</svg>
