<svg xmlns="http://www.w3.org/2000/svg" width="273.529" height="88.339" viewBox="0 0 273.529 88.339">
    <g data-name="Group 11342">
        <path data-name="Path 236" d="m104.617-351.84 1.118-.028 1.115-.056 1.1-.086 1.1-.11 1.09-.138 1.078-.166 1.075-.19 1.061-.218 1.054-.244 1.044-.268 1.033-.293 1.022-.316 1.009-.345 1-.365.99-.389.975-.415.963-.434.952-.459.939-.479.925-.505.911-.523.9-.546.885-.566.867-.586.853-.606.836-.629.825-.642.8-.666.792-.686.771-.7.757-.721.738-.737.722-.758.7-.772.683-.791.663-.805.648-.819.625-.84.608-.852.587-.87.565-.883.546-.9.523-.911.505-.925.478-.942.459-.949.434-.962.414-.977.391-.988.363-1 .345-1.013.318-1.021.293-1.035.27-1.04.24-1.054.219-1.062.191-1.07.165-1.082.138-1.091.111-1.1.082-1.105.057-1.111.03-1.12v-1.129l-.03-1.119-.057-1.111-.082-1.106-.111-1.095-.138-1.091-.165-1.082-.191-1.07-.219-1.062-.24-1.056-.27-1.042-.293-1.03-.318-1.024-.345-1.009-.363-1-.391-.988-.414-.977-.434-.962-.459-.949-.478-.942-.505-.925-.523-.911-.546-.9-.565-.88-.587-.87-.608-.852-.625-.84-.648-.822-.663-.8-.683-.791-.7-.772-.722-.758-.738-.737-.757-.721-.771-.7-.792-.684-.8-.666-.825-.646-.836-.626-.853-.607-.867-.585-.885-.57-.9-.543-.911-.523-.925-.505-.939-.479-.952-.459-.963-.434-.975-.415-.99-.389-1-.364-1.009-.345-1.022-.318-1.033-.292-1.044-.27-1.054-.243-1.061-.218-1.075-.19-1.078-.166-1.09-.138-1.1-.111-1.1-.084-1.115-.056-1.118-.028h-1.125l-1.123.028-1.111.056-1.105.084-1.1.111-1.091.138-1.078.166-1.071.19-1.064.218-1.05.243-1.045.27-1.031.292-1.023.318-1.013.345-1 .364-.987.389-.979.415-.961.434-.95.459-.939.479-.928.505-.909.523-.9.543-.88.57-.871.585-.852.607-.839.626-.822.646-.806.666-.789.684-.774.7-.756.721-.737.737-.721.758-.7.772-.684.791-.666.8-.645.822-.627.84-.606.852-.587.87-.565.88-.544.9-.525.911-.505.925-.479.942-.458.949-.436.962-.413.977-.39.988-.367 1-.342 1.009-.315 1.024-.3 1.03-.267 1.042-.243 1.056-.217 1.062-.191 1.07-.166 1.082-.139 1.091-.109 1.095-.086 1.106-.056 1.111-.028 1.119v1.129l.028 1.12.056 1.111.086 1.105.109 1.1.139 1.091.166 1.082.191 1.07.217 1.062.248 1.059.267 1.04.3 1.035.315 1.021.342 1.013.367 1 .39.988.413.977.436.962.458.949.479.942.505.925.525.911.544.9.565.883.587.87.606.852.627.84.645.819.666.805.684.791.7.772.721.758.737.737.756.721.774.7.789.686.806.666.822.642.839.629.852.606.871.586.88.566.9.546.909.523.928.505.939.479.95.459.961.434.979.415.987.389 1 .365 1.013.345 1.023.316 1.031.293 1.045.268 1.05.244 1.064.218 1.071.19 1.078.166 1.091.138 1.1.11 1.105.086 1.111.056 1.123.028h1.125z" transform="translate(-59.883 439.527)" style="fill:#02b286"/>
        <path data-name="Path 237" d="M102.866-430.961a34.452 34.452 0 0 0-34.412 34.416 34.452 34.452 0 0 0 34.412 34.416 34.454 34.454 0 0 0 34.413-34.416 34.454 34.454 0 0 0-34.413-34.416zm0 69.846a35.469 35.469 0 0 1-35.43-35.43 35.469 35.469 0 0 1 35.43-35.43 35.473 35.473 0 0 1 35.432 35.43 35.473 35.473 0 0 1-35.432 35.43z" transform="translate(-58.696 440.714)" style="fill:#fff"/>
        <path data-name="Path 238" d="M44.77 11.433a.583.583 0 0 1-.766.306 8.3 8.3 0 0 0-5.824-.27 26.464 26.464 0 0 1-5.464 1.092h-.041a.585.585 0 0 1-.584-.536.579.579 0 0 1 .536-.626 25.139 25.139 0 0 0 5.22-1.05 9.445 9.445 0 0 1 6.616.319.576.576 0 0 1 .307.765z"/>
        <path data-name="Path 239" d="M44.77 13.912a.583.583 0 0 1-.766.309 8.291 8.291 0 0 0-5.824-.278 26.022 26.022 0 0 1-5.464 1.095.262.262 0 0 1-.041 0 .585.585 0 0 1-.584-.539.588.588 0 0 1 .536-.628 24.92 24.92 0 0 0 5.22-1.043 9.425 9.425 0 0 1 6.616.313.58.58 0 0 1 .307.771z"/>
        <path data-name="Path 240" d="M44.77 26.307a.585.585 0 0 1-.766.307 8.3 8.3 0 0 0-5.824-.273 26.334 26.334 0 0 1-5.464 1.1h-.041a.584.584 0 0 1-.584-.541.583.583 0 0 1 .536-.624 25.26 25.26 0 0 0 5.22-1.045 9.374 9.374 0 0 1 6.616.318.574.574 0 0 1 .307.758z"/>
        <path data-name="Path 241" d="M44.77 28.789a.582.582 0 0 1-.766.3 8.337 8.337 0 0 0-5.824-.268 26.164 26.164 0 0 1-5.464 1.093h-.041a.585.585 0 0 1-.584-.534.58.58 0 0 1 .536-.628 24.846 24.846 0 0 0 5.22-1.051 9.458 9.458 0 0 1 6.616.318.584.584 0 0 1 .307.77z"/>
        <path data-name="Path 242" d="M44.77 16.391a.582.582 0 0 1-.766.306 8.3 8.3 0 0 0-5.824-.268 26.616 26.616 0 0 1-5.464 1.092h-.041a.583.583 0 0 1-.584-.537.587.587 0 0 1 .536-.63 24.594 24.594 0 0 0 5.22-1.047 9.464 9.464 0 0 1 6.616.319.579.579 0 0 1 .307.765z"/>
        <path data-name="Path 243" d="M44.77 21.35a.582.582 0 0 1-.766.306 8.292 8.292 0 0 0-5.824-.268 26.46 26.46 0 0 1-5.464 1.092h-.041a.585.585 0 0 1-.584-.541.587.587 0 0 1 .536-.627 25.078 25.078 0 0 0 5.22-1.044 9.438 9.438 0 0 1 6.616.319.575.575 0 0 1 .307.763z"/>
        <path data-name="Path 244" d="M44.77 18.869a.58.58 0 0 1-.766.306 8.317 8.317 0 0 0-5.824-.272 25.866 25.866 0 0 1-5.464 1.093h-.041a.584.584 0 0 1-.584-.54.583.583 0 0 1 .536-.627 24.829 24.829 0 0 0 5.22-1.049 9.457 9.457 0 0 1 6.616.318.579.579 0 0 1 .307.771z"/>
        <path data-name="Path 245" d="M44.77 23.832a.584.584 0 0 1-.766.3 8.33 8.33 0 0 0-5.824-.271 26.163 26.163 0 0 1-5.464 1.093h-.041a.58.58 0 0 1-.584-.534.58.58 0 0 1 .536-.628 24.838 24.838 0 0 0 5.22-1.05 9.451 9.451 0 0 1 6.616.32.582.582 0 0 1 .307.77z"/>
        <path data-name="Path 246" d="M61.526 12.026a.583.583 0 0 1-.579.536h-.048a26.49 26.49 0 0 1-5.461-1.092 8.3 8.3 0 0 0-5.822.27.587.587 0 0 1-.77-.306.581.581 0 0 1 .307-.764 9.452 9.452 0 0 1 6.618-.319 25.214 25.214 0 0 0 5.22 1.05.579.579 0 0 1 .535.625z"/>
        <path data-name="Path 247" d="M61.526 14.502a.583.583 0 0 1-.579.539.345.345 0 0 1-.048 0 26.046 26.046 0 0 1-5.461-1.095 8.287 8.287 0 0 0-5.822.278.587.587 0 0 1-.77-.309.585.585 0 0 1 .307-.769 9.432 9.432 0 0 1 6.618-.313 24.934 24.934 0 0 0 5.22 1.043.588.588 0 0 1 .535.626z"/>
        <path data-name="Path 248" d="M61.526 26.895a.582.582 0 0 1-.579.541h-.048a26.154 26.154 0 0 1-5.461-1.1 8.313 8.313 0 0 0-5.822.277.589.589 0 0 1-.77-.307.579.579 0 0 1 .307-.763 9.381 9.381 0 0 1 6.618-.318 25.334 25.334 0 0 0 5.22 1.045.583.583 0 0 1 .535.625z"/>
        <path data-name="Path 249" d="M61.526 29.38a.583.583 0 0 1-.579.534h-.048a26.189 26.189 0 0 1-5.461-1.093 8.332 8.332 0 0 0-5.822.268.587.587 0 0 1-.77-.3.589.589 0 0 1 .307-.771 9.464 9.464 0 0 1 6.618-.318 24.919 24.919 0 0 0 5.22 1.051.58.58 0 0 1 .535.629z"/>
        <path data-name="Path 250" d="M61.526 16.984a.581.581 0 0 1-.579.537h-.048a26.642 26.642 0 0 1-5.461-1.092 8.294 8.294 0 0 0-5.822.268.586.586 0 0 1-.77-.306.584.584 0 0 1 .307-.765 9.471 9.471 0 0 1 6.618-.319 24.665 24.665 0 0 0 5.22 1.047.587.587 0 0 1 .535.63z"/>
        <path data-name="Path 251" d="M61.526 21.94a.584.584 0 0 1-.579.541h-.048a26.485 26.485 0 0 1-5.461-1.092 8.287 8.287 0 0 0-5.822.268.586.586 0 0 1-.77-.306.58.58 0 0 1 .307-.764 9.445 9.445 0 0 1 6.618-.319 25.093 25.093 0 0 0 5.22 1.044.587.587 0 0 1 .535.628z"/>
        <path data-name="Path 252" d="M61.526 19.461a.582.582 0 0 1-.579.54h-.048a25.89 25.89 0 0 1-5.461-1.093 8.313 8.313 0 0 0-5.822.272.584.584 0 0 1-.77-.306.584.584 0 0 1 .307-.766 9.464 9.464 0 0 1 6.618-.318 24.9 24.9 0 0 0 5.22 1.049.583.583 0 0 1 .535.622z"/>
        <path data-name="Path 253" d="M61.526 24.42a.578.578 0 0 1-.579.534h-.048a26.187 26.187 0 0 1-5.461-1.093 8.326 8.326 0 0 0-5.822.271.589.589 0 0 1-.77-.3.587.587 0 0 1 .307-.77 9.458 9.458 0 0 1 6.618-.32 24.91 24.91 0 0 0 5.22 1.05.58.58 0 0 1 .535.628z"/>
        <path data-name="Path 254" d="M65.412 34.273a.258.258 0 0 1-.259.259H50.039a1.744 1.744 0 0 0-1.575.988 1.953 1.953 0 0 1-1.656 1.112 1.949 1.949 0 0 1-1.655-1.112 1.742 1.742 0 0 0-1.575-.988H28.463a.258.258 0 0 1-.259-.259V10.62a.256.256 0 0 1 .259-.257h.913v22.332a.589.589 0 0 0 .434.564c.114.029 2.785.7 8.37-.986a8.391 8.391 0 0 1 7.383 1.146 2.4 2.4 0 0 0 1.245.428 2.415 2.415 0 0 0 1.247-.428 8.388 8.388 0 0 1 7.382-1.146c5.584 1.686 8.258 1.015 8.371.986a.592.592 0 0 0 .432-.564V10.358h.912a.256.256 0 0 1 .259.257zM30.543 8.664a.112.112 0 0 1 .122-.114 20.9 20.9 0 0 0 7.515-1.108 8.313 8.313 0 0 1 8.184 1.792v23.315a9.618 9.618 0 0 0-8.517-1.385c-.321.091-.666.191-.983.275-.006 0-.008 0-.008.006a19.113 19.113 0 0 1-6.312.756zm16.711.571a8.309 8.309 0 0 1 8.183-1.792 20.9 20.9 0 0 0 7.515 1.108.112.112 0 0 1 .122.114v23.538a19.113 19.113 0 0 1-6.311-.756c0-.006 0-.006-.011-.006-.318-.084-.663-.184-.982-.275a9.61 9.61 0 0 0-8.516 1.385zm17.9-.036h-.912v-.534a1.278 1.278 0 0 0-1.379-1.275 19.842 19.842 0 0 1-7.092-1.066 9.507 9.507 0 0 0-8.962 1.761 9.5 9.5 0 0 0-8.961-1.761A19.829 19.829 0 0 1 30.76 7.39a1.277 1.277 0 0 0-1.383 1.275v.534h-.913a1.425 1.425 0 0 0-1.424 1.422v23.653a1.427 1.427 0 0 0 1.424 1.425h15.114a.561.561 0 0 1 .519.321 3.1 3.1 0 0 0 2.711 1.786 3.084 3.084 0 0 0 2.708-1.786.569.569 0 0 1 .523-.321h15.114a1.428 1.428 0 0 0 1.426-1.425V10.621a1.426 1.426 0 0 0-1.426-1.426z"/>
        <path data-name="Path 255" d="M113.991-427.906h-.048a26.411 26.411 0 0 1-5.461-1.094 8.3 8.3 0 0 0-5.822.27.587.587 0 0 1-.77-.306.581.581 0 0 1 .307-.764 9.452 9.452 0 0 1 6.618-.319 25.214 25.214 0 0 0 5.22 1.05.579.579 0 0 1 .536.626.583.583 0 0 1-.58.537zm0 2.48a.354.354 0 0 1-.048 0 25.97 25.97 0 0 1-5.461-1.095 8.287 8.287 0 0 0-5.822.278.587.587 0 0 1-.77-.309.585.585 0 0 1 .307-.769 9.432 9.432 0 0 1 6.618-.313 24.934 24.934 0 0 0 5.22 1.043.588.588 0 0 1 .536.628.583.583 0 0 1-.58.537zm0 2.48h-.048a26.644 26.644 0 0 1-5.461-1.092 8.294 8.294 0 0 0-5.822.268.586.586 0 0 1-.77-.306.584.584 0 0 1 .307-.765 9.471 9.471 0 0 1 6.618-.319 24.662 24.662 0 0 0 5.22 1.047.587.587 0 0 1 .536.63.581.581 0 0 1-.58.537zm0 2.48h-.048a25.889 25.889 0 0 1-5.461-1.093 8.313 8.313 0 0 0-5.822.272.584.584 0 0 1-.77-.306.584.584 0 0 1 .307-.766 9.464 9.464 0 0 1 6.618-.318 24.9 24.9 0 0 0 5.22 1.049.583.583 0 0 1 .536.627.582.582 0 0 1-.58.535zm0 2.479h-.048a26.485 26.485 0 0 1-5.461-1.092 8.287 8.287 0 0 0-5.822.268.586.586 0 0 1-.77-.306.58.58 0 0 1 .307-.764 9.445 9.445 0 0 1 6.618-.319 25.093 25.093 0 0 0 5.22 1.044.587.587 0 0 1 .536.627.584.584 0 0 1-.58.542zm0 2.476h-.048a26.273 26.273 0 0 1-5.461-1.095 8.326 8.326 0 0 0-5.822.271.589.589 0 0 1-.77-.3.587.587 0 0 1 .307-.77 9.458 9.458 0 0 1 6.618-.32 24.908 24.908 0 0 0 5.22 1.05.58.58 0 0 1 .536.628.579.579 0 0 1-.58.536zm0 2.481h-.048a26.359 26.359 0 0 1-5.461-1.1 8.293 8.293 0 0 0-5.822.273.589.589 0 0 1-.77-.307.579.579 0 0 1 .307-.763 9.381 9.381 0 0 1 6.618-.318 25.334 25.334 0 0 0 5.22 1.045.583.583 0 0 1 .536.624.582.582 0 0 1-.58.546zm0 2.478h-.048a26.189 26.189 0 0 1-5.461-1.093 8.332 8.332 0 0 0-5.822.268.587.587 0 0 1-.77-.3.589.589 0 0 1 .307-.771 9.464 9.464 0 0 1 6.618-.318 24.919 24.919 0 0 0 5.22 1.051.58.58 0 0 1 .536.628.583.583 0 0 1-.58.535zM116-431.916a20.9 20.9 0 0 1-7.515-1.108 8.309 8.309 0 0 0-8.183 1.792v23.315a9.61 9.61 0 0 1 8.516-1.385c.319.091.665.191.982.275.008 0 .011 0 .011.006a19.177 19.177 0 0 0 6.311.758V-431.8a.112.112 0 0 0-.122-.116z" transform="translate(-53.044 440.467)" style="fill:#fff"/>
        <path data-name="Path 256" d="M121.252-430.332v23.653a.261.261 0 0 1-.259.263h-15.114a1.741 1.741 0 0 0-1.575.984 1.953 1.953 0 0 1-1.656 1.112 1.95 1.95 0 0 1-1.655-1.112 1.739 1.739 0 0 0-1.575-.984H84.3a.261.261 0 0 1-.259-.263v-23.653a.256.256 0 0 1 .259-.257h.913v22.337a.589.589 0 0 0 .434.564c.114.029 2.785.7 8.37-.986a8.391 8.391 0 0 1 7.383 1.146 2.4 2.4 0 0 0 1.245.428 2.415 2.415 0 0 0 1.247-.428 8.388 8.388 0 0 1 7.382-1.146c5.584 1.686 8.258 1.015 8.371.986a.592.592 0 0 0 .432-.564v-22.337h.912a.257.257 0 0 1 .263.257z" transform="translate(-55.84 440.952)" style="fill:#fff"/>
        <path data-name="Path 257" d="M100.267-429.034a.583.583 0 0 1-.766.306 8.3 8.3 0 0 0-5.824-.27 26.464 26.464 0 0 1-5.464 1.092h-.041a.585.585 0 0 1-.584-.536.579.579 0 0 1 .536-.626 25.139 25.139 0 0 0 5.22-1.05 9.445 9.445 0 0 1 6.616.319.576.576 0 0 1 .307.765zm0 2.48a.583.583 0 0 1-.766.309 8.291 8.291 0 0 0-5.824-.278 26.022 26.022 0 0 1-5.464 1.095.262.262 0 0 1-.041 0 .585.585 0 0 1-.584-.539.588.588 0 0 1 .536-.628 24.92 24.92 0 0 0 5.22-1.043 9.425 9.425 0 0 1 6.616.313.58.58 0 0 1 .307.77zm0 2.479a.582.582 0 0 1-.766.306 8.3 8.3 0 0 0-5.824-.268 26.618 26.618 0 0 1-5.464 1.092h-.041a.583.583 0 0 1-.584-.537.587.587 0 0 1 .536-.63 24.592 24.592 0 0 0 5.22-1.047 9.464 9.464 0 0 1 6.616.319.579.579 0 0 1 .307.764zm0 2.478a.58.58 0 0 1-.766.306 8.318 8.318 0 0 0-5.824-.272 25.865 25.865 0 0 1-5.464 1.093h-.041a.584.584 0 0 1-.584-.54.583.583 0 0 1 .536-.627 24.829 24.829 0 0 0 5.22-1.049 9.458 9.458 0 0 1 6.616.318.579.579 0 0 1 .307.768zm0 2.481a.582.582 0 0 1-.766.306 8.292 8.292 0 0 0-5.824-.268 26.46 26.46 0 0 1-5.464 1.092h-.041a.585.585 0 0 1-.584-.541.587.587 0 0 1 .536-.627 25.078 25.078 0 0 0 5.22-1.044 9.438 9.438 0 0 1 6.616.319.575.575 0 0 1 .307.762zm0 2.482a.584.584 0 0 1-.766.3 8.33 8.33 0 0 0-5.824-.271 26.165 26.165 0 0 1-5.464 1.093h-.041a.58.58 0 0 1-.584-.534.58.58 0 0 1 .536-.628 24.836 24.836 0 0 0 5.22-1.05 9.451 9.451 0 0 1 6.616.32.582.582 0 0 1 .307.769zm0 2.475a.585.585 0 0 1-.766.307 8.318 8.318 0 0 0-5.824-.277 26.129 26.129 0 0 1-5.464 1.1h-.041a.584.584 0 0 1-.584-.541.583.583 0 0 1 .536-.624 25.26 25.26 0 0 0 5.22-1.045 9.374 9.374 0 0 1 6.616.318.574.574 0 0 1 .307.761zm0 2.482a.582.582 0 0 1-.766.3 8.337 8.337 0 0 0-5.824-.268 26.164 26.164 0 0 1-5.464 1.093h-.041a.585.585 0 0 1-.584-.534.58.58 0 0 1 .536-.628 24.846 24.846 0 0 0 5.22-1.051 9.458 9.458 0 0 1 6.616.318.584.584 0 0 1 .307.77zm-6.59-21.346a20.9 20.9 0 0 1-7.515 1.108.112.112 0 0 0-.122.114v23.538a19.113 19.113 0 0 0 6.312-.756c0-.006 0-.006.008-.006.318-.084.662-.184.983-.275a9.618 9.618 0 0 1 8.517 1.385v-23.315a8.313 8.313 0 0 0-8.183-1.794z" transform="translate(-55.496 440.467)" style="fill:#fff"/>
        <path data-name="Path 258" d="M31.947 84.698h28.1l.573-.224.975-.415.963-.434.952-.459.939-.479.629-.345h-4.114l1.1-3.975h9.024l.366-.284.8-.666.792-.686.771-.7.012-.013H61.958l-.715.12-.627.334-.486.513-.306.656-1.3 4.7H32.681l5.228-10.3h39.688l.486-.592.648-.819.625-.84.068-.1h-41.06v-35.8l.088-.261.008-.465v-.925l-.009-.462-.014-.459-.019-.463-.025-.461-.029-.467v-.091h46.917l-.047-.129-.363-1-.391-.988-.1-.237H38.285l-.459.048-.427.132-.387.211-.338.278-.278.339-.21.388-.135.424-.045.459v40.822L29.715 82.99v.022l-.049.1-.014.032-.032.123v.016l-.019.131v.035l-.008.075v1.663l.116.042 1.013.345 1.023.316.205.059zm12.787 2.989 1.118-.028 1.115-.056 1.1-.086 1.1-.11 1.09-.138 1.078-.166 1.075-.19.254-.052H35.678l.254.052 1.071.19 1.078.166 1.091.138 1.1.11 1.105.086 1.111.056 1.123.028h1.125z"/>
        <path data-name="Path 259" d="m108.762-365.166 1.054-.244 1.044-.268 1.033-.293 1.022-.316 1.009-.345 1-.365.417-.165h-28.1v1.249l.826.234 1.045.268 1.05.244.81.166h16.987z" transform="translate(-55.291 451.86)" style="fill:#fff"/>
        <path data-name="Path 260" d="m116.409-368.749.911-.523.9-.546.885-.566.867-.586.853-.606.836-.629.459-.359h-9.024l-1.1 3.975h4.117z" transform="translate(-51.033 450.931)" style="fill:#fff"/>
        <path data-name="Path 261" d="m115.006-372.361.306-.656.486-.513.627-.334.715-.12h11.871l.745-.708.738-.737.722-.758.7-.772.683-.791.177-.213H93.091l-5.228 10.3h25.842z" transform="translate(-55.183 450.003)" style="fill:#fff"/>
        <path data-name="Path 262" d="m134.313-374.874.587-.87.565-.883v-.007h-38.4l-.717-.143-.587-.395-.4-.586-.108-.347-.035-.371v-31.144l.143-.718.4-.586.587-.395.717-.147h43.348l-.17-.6-.318-1.024-.3-.88H92.709v39.853h41.064z" transform="translate(-54.349 443.81)" style="fill:#fff"/>
        <path data-name="Path 263" d="m81.662 66.287.523-.911.3-.547H43.219V34.697h43.433l-.2-.885-.27-1.042-.122-.427H42.714l-.717.147-.587.395-.4.586-.144.718v31.144l.036.371.108.348.4.585.587.395.717.146h38.4z"/>
        <path data-name="Path 264" d="m136.326-380.072.478-.942.459-.949.434-.962.414-.977.391-.988.363-1 .345-1.013.318-1.021.293-1.035.27-1.04.24-1.054.219-1.062.191-1.07.165-1.082.138-1.091.111-1.1.082-1.105.057-1.111.03-1.12v-1.129l-.03-1.119-.057-1.111-.082-1.106-.111-1.095-.138-1.091-.165-1.082-.191-1.07-.219-1.062-.039-.171H96.858v30.132h39.26z" transform="translate(-53.636 444.523)" style="fill:#fff"/>
        <path data-name="Path 265" d="M66.624 54.094v-8.659l7.7 4.327zm9.434-4.623a.568.568 0 0 0-.223-.224l-9.509-5.351a.6.6 0 0 0-.81.223.593.593 0 0 0-.075.3v10.7a.583.583 0 0 0 .291.509.586.586 0 0 0 .594 0l9.509-5.345a.588.588 0 0 0 .22-.813z"/>
        <path data-name="Path 266" d="M69.596 58.082a8.322 8.322 0 0 1-8.321-8.323 8.332 8.332 0 0 1 8.321-8.315 8.314 8.314 0 0 1 8.315 8.315 8.316 8.316 0 0 1-8.315 8.323zm0-17.826a9.506 9.506 0 0 0-9.508 9.5 9.518 9.518 0 0 0 9.508 9.512 9.512 9.512 0 0 0 9.509-9.512 9.507 9.507 0 0 0-9.509-9.5z"/>
        <path data-name="Path 267" d="m126.819-395.233-9.509 5.345a.586.586 0 0 1-.594 0 .586.586 0 0 1-.291-.509v-10.7a.593.593 0 0 1 .075-.3.6.6 0 0 1 .81-.223l9.509 5.351a.568.568 0 0 1 .223.224.588.588 0 0 1-.223.812zm-6.236-8.837a8.332 8.332 0 0 0-8.321 8.315 8.322 8.322 0 0 0 8.321 8.323 8.316 8.316 0 0 0 8.315-8.323 8.314 8.314 0 0 0-8.315-8.315z" transform="translate(-50.987 445.513)" style="fill:#02b286"/>
        <path data-name="Path 268" d="m124.53-396.341-7.707 4.335v-8.659z" transform="translate(-50.202 446.099)" style="fill:#fff"/>
        <path data-name="Path 269" d="M36.203 40.745 18.027 45.51l.134-6.248 18.173-4.766zm-5.17 19.985a4.746 4.746 0 0 1-4.638-4.84 4.746 4.746 0 0 1 4.84-4.642 4.744 4.744 0 0 1 4.639 4.841 4.741 4.741 0 0 1-4.84 4.64zm-19.424 5.095a4.748 4.748 0 0 1-4.64-4.841 4.744 4.744 0 0 1 4.841-4.639 4.75 4.75 0 0 1 4.646 4.839 4.75 4.75 0 0 1-4.846 4.64zm25.207-32.742-.077.022a.62.62 0 0 0-.373-.033l-18.3 4.926-.669.177a.622.622 0 0 0-.465.593l-.391 18.495-1.139-.893a5.9 5.9 0 0 0-3.563-1.274 5.993 5.993 0 0 0-6.112 5.856 5.991 5.991 0 0 0 5.858 6.109 5.986 5.986 0 0 0 6.111-5.856l.306-14.409 18.174-4.765-.213 10.14-1.135-.888a5.908 5.908 0 0 0-3.564-1.276 5.99 5.99 0 0 0-6.111 5.856 5.991 5.991 0 0 0 5.858 6.111 5.99 5.99 0 0 0 6.111-5.858l.475-22.413a.619.619 0 0 0-.781-.62z"/>
        <path data-name="Path 270" d="m95.341-403.538-18.176 4.765.134-6.248 18.173-4.766zm-5.17 19.985a4.746 4.746 0 0 1-4.638-4.84 4.746 4.746 0 0 1 4.84-4.642 4.744 4.744 0 0 1 4.639 4.841 4.741 4.741 0 0 1-4.84 4.64zm-19.424 5.095a4.748 4.748 0 0 1-4.64-4.841 4.744 4.744 0 0 1 4.841-4.639 4.75 4.75 0 0 1 4.646 4.839 4.75 4.75 0 0 1-4.846 4.64zM95.954-411.2l-.077.022a.62.62 0 0 0-.373-.033l-18.3 4.926-.669.177a.622.622 0 0 0-.465.593l-.391 18.495-1.139-.893a5.9 5.9 0 0 0-3.563-1.274 5.993 5.993 0 0 0-6.112 5.856 5.991 5.991 0 0 0 5.858 6.109 5.986 5.986 0 0 0 6.111-5.856l.306-14.409 18.174-4.765-.213 10.14-1.135-.888a5.908 5.908 0 0 0-3.564-1.276 5.99 5.99 0 0 0-6.111 5.856 5.991 5.991 0 0 0 5.858 6.111 5.99 5.99 0 0 0 6.111-5.858l.475-22.413a.619.619 0 0 0-.781-.62z" transform="translate(-59.138 444.283)" style="stroke-width:.678px;fill:none;stroke:#000;fill-rule:evenodd"/>
        <path data-name="Path 271" d="m93.666-410-.13 6.249-18.176 4.767.134-6.248z" transform="translate(-57.333 444.494)" style="fill:#fff"/>
        <path data-name="Path 272" d="M91.98-390.863a4.741 4.741 0 0 1-4.841 4.641 4.746 4.746 0 0 1-4.638-4.84 4.746 4.746 0 0 1 4.84-4.642 4.744 4.744 0 0 1 4.639 4.841z" transform="translate(-56.105 446.951)" style="fill:#fff"/>
        <path data-name="Path 273" d="M75.412-386.517a4.75 4.75 0 0 1-4.847 4.641 4.748 4.748 0 0 1-4.64-4.841 4.744 4.744 0 0 1 4.841-4.639 4.75 4.75 0 0 1 4.646 4.839z" transform="translate(-58.956 447.699)" style="fill:#fff"/>
        <path data-name="Path 274" d="M147.572-395.358a43.518 43.518 0 0 1-43.519 43.519 43.52 43.52 0 0 1-43.52-43.519 43.52 43.52 0 0 1 43.52-43.519 43.518 43.518 0 0 1 43.519 43.519z" transform="translate(-59.883 439.527)" style="stroke-width:1.301px;fill:none;stroke:#000;fill-rule:evenodd"/>
        <g>
            <path data-name="Path 275" d="M133.9 42.793a7.061 7.061 0 0 1-3.066-.6 5.9 5.9 0 0 1-2.072-1.648 11.909 11.909 0 0 1-1.485-2.455l-3.136-6.8 2.619 2.012a15.737 15.737 0 0 0-1.878.35 3.912 3.912 0 0 0-1.52.69 1.569 1.569 0 0 0-.6 1.331 3.206 3.206 0 0 0 .383 1.439 13.008 13.008 0 0 0 .933 1.558q.55.793 1.113 1.587a11.573 11.573 0 0 1 .936 1.536 2.991 2.991 0 0 1 .387 1.357 6.422 6.422 0 0 1-1.263 3.87 8.759 8.759 0 0 1-3.543 2.78 12.448 12.448 0 0 1-5.227 1.04 20.179 20.179 0 0 1-4.013-.35 17.443 17.443 0 0 1-2.608-.7l-.911-.349 1.308-4.455h.336q.4.12 1.263.391a19.351 19.351 0 0 0 2.167.519 15.6 15.6 0 0 0 2.912.246 9.7 9.7 0 0 0 3.8-.675 9.261 9.261 0 0 0 2.574-1.522l.125 1.951q-.977-1.285-2.018-2.486t-1.931-2.365a12.094 12.094 0 0 1-1.449-2.343 5.754 5.754 0 0 1-.548-2.44 5.959 5.959 0 0 1 .9-3.335 8.076 8.076 0 0 1 2.373-2.364 14.67 14.67 0 0 1 3.266-1.6 27.322 27.322 0 0 1 3.586-.994l.49.24 2.622 5.916a24.781 24.781 0 0 0 1.2 2.444 3.9 3.9 0 0 0 1.113 1.3 2.663 2.663 0 0 0 1.47.377v3.938zm-20.54-5.07a2.439 2.439 0 0 1-1.695-.642 2.249 2.249 0 0 1-.714-1.767 2.237 2.237 0 0 1 .714-1.786 2.524 2.524 0 0 1 1.722-.627 2.469 2.469 0 0 1 1.706.627 2.261 2.261 0 0 1 .7 1.786 2.273 2.273 0 0 1-.7 1.767 2.459 2.459 0 0 1-1.734.642zm0 5.732a2.537 2.537 0 0 1-1.724-.628 2.234 2.234 0 0 1-.72-1.78 2.233 2.233 0 0 1 .72-1.781 2.533 2.533 0 0 1 1.724-.631 2.479 2.479 0 0 1 1.71.631 2.259 2.259 0 0 1 .7 1.781 2.26 2.26 0 0 1-.7 1.78 2.482 2.482 0 0 1-1.711.628z"/>
            <path data-name="Path 276" d="M140.919 38.244v3.938l-.609.608h-6.4v-3.93l.609-.616z"/>
            <path data-name="Path 277" d="M140.995 58.87a.141.141 0 0 1 .161-.158h1.025a.238.238 0 0 1 .251.158l3.208 7.23h.047l3.146-7.23a.237.237 0 0 1 .248-.158h1.031a.138.138 0 0 1 .157.158v10.42a.139.139 0 0 1-.157.158h-1a.139.139 0 0 1-.158-.158v-7.471h-.042l-2.667 5.909a.293.293 0 0 1-.286.19h-.632a.3.3 0 0 1-.3-.19l-2.669-5.909h-.046v7.471a.141.141 0 0 1-.162.158h-.992a.142.142 0 0 1-.161-.158z"/>
            <path data-name="Path 278" d="M147.324 38.244v3.938l-.609.608h-6.404v-3.93l.607-.616z"/>
            <path data-name="Path 279" d="M153.73 38.244v3.938l-.608.608h-6.406v-3.93l.608-.616z"/>
            <path data-name="Path 280" d="M160.139 38.244v3.938l-.612.608h-6.4v-3.93l.608-.616z"/>
            <path data-name="Path 281" d="M158.998 58.87a.186.186 0 0 1 .186-.158h1.029a.2.2 0 0 1 .206.158l3.674 10.42c.033.105-.006.158-.109.158h-1.1a.2.2 0 0 1-.207-.158l-.822-2.338h-4.341l-.823 2.338a.212.212 0 0 1-.205.158h-1.1c-.1 0-.138-.053-.11-.158zm2.4 6.789-1.688-4.881h-.033l-1.7 4.881z"/>
            <path data-name="Path 282" d="M166.539 38.244v3.938l-.607.608h-6.407v-3.93l.608-.616z"/>
            <path data-name="Path 283" d="M172.949 38.244v3.938l-.608.608h-6.408v-3.93l.607-.616z"/>
            <path data-name="Path 284" d="M169.121 58.87a.138.138 0 0 1 .156-.158h3.618a3.264 3.264 0 0 1 3.5 2.288c.045.146.083.3.12.459a4.842 4.842 0 0 1 .094.584c.028.231.046.51.055.838s.016.725.016 1.2 0 .879-.016 1.2-.027.6-.055.834a4.772 4.772 0 0 1-.094.58 6.506 6.506 0 0 1-.12.463 3.262 3.262 0 0 1-3.5 2.289h-3.618a.139.139 0 0 1-.156-.158zm1.4 9.174a.086.086 0 0 0 .1.1h1.971a3.226 3.226 0 0 0 1.582-.34 1.983 1.983 0 0 0 .866-1.132c.03-.091.061-.2.095-.329a2.668 2.668 0 0 0 .069-.482c.015-.2.029-.437.04-.721s.016-.636.016-1.059 0-.769-.016-1.052-.025-.527-.04-.723a2.607 2.607 0 0 0-.069-.478c-.034-.127-.064-.24-.095-.333a1.976 1.976 0 0 0-.866-1.131 3.24 3.24 0 0 0-1.582-.339h-1.971a.087.087 0 0 0-.1.1z"/>
            <path data-name="Path 285" d="M172.942 38.247h5.731l-1.8.829a2.245 2.245 0 0 1-.5-1.233 14.5 14.5 0 0 1-.132-2.16v-8.654l5.029-.55h.336v13.963l-2.162-2.2h6.1v3.938l-.611.608h-12.6v-3.93zm8.913-14.713a2.476 2.476 0 0 1-1.692-.638 2.252 2.252 0 0 1-.714-1.772 2.231 2.231 0 0 1 .714-1.781 2.494 2.494 0 0 1 1.692-.627 2.518 2.518 0 0 1 1.743.627 2.259 2.259 0 0 1 .7 1.781 2.28 2.28 0 0 1-.7 1.772 2.5 2.5 0 0 1-1.743.638zm-5.518.643a2.452 2.452 0 0 1-1.709-.638 2.288 2.288 0 0 1-.7-1.773 2.32 2.32 0 0 1 .7-1.8 2.452 2.452 0 0 1 1.709-.643 2.456 2.456 0 0 1 1.709.643 2.321 2.321 0 0 1 .7 1.8 2.289 2.289 0 0 1-.7 1.773 2.456 2.456 0 0 1-1.708.639z"/>
            <path data-name="Path 286" d="M188.508 69.447a.209.209 0 0 1-.2-.158l-2.151-4.39h-2.367q-.095 0-.095.1v4.292a.139.139 0 0 1-.157.158h-1.089a.141.141 0 0 1-.161-.158v-10.42a.14.14 0 0 1 .161-.158h3.884a3.976 3.976 0 0 1 1.372.224 3.013 3.013 0 0 1 1.058.625 2.723 2.723 0 0 1 .683.973 3.173 3.173 0 0 1 .246 1.273 2.986 2.986 0 0 1-.567 1.847 3.035 3.035 0 0 1-1.549 1.072l2.292 4.537a.115.115 0 0 1 .013.132.11.11 0 0 1-.108.054zm-2.207-5.859a2.137 2.137 0 0 0 1.467-.464 1.685 1.685 0 0 0 .518-1.32 1.682 1.682 0 0 0-.518-1.317 2.115 2.115 0 0 0-1.467-.468h-2.513a.086.086 0 0 0-.095.1v3.378a.084.084 0 0 0 .095.093z"/>
            <path data-name="Path 287" d="M202.896 44.384a12.642 12.642 0 0 0-2.231-.967 12.147 12.147 0 0 0-2.482-.491 36.716 36.716 0 0 0-3.342-.132h-9.938v-3.93l.608-.616h5.61l-1.8.852a2.216 2.216 0 0 1-.442-1.184 16.447 16.447 0 0 1-.107-2.011v-6.8l5.038-.549h.329v11.928l-2.187-2.233h2.924a12.614 12.614 0 0 1 2.347.2 9.841 9.841 0 0 1 2.012.593l-1.307 1.86V28.097l5.029-.547h.336v14.3l-1.833-1.982a8.861 8.861 0 0 0 2.806-.579 7.758 7.758 0 0 0 2.091-1.22 5.284 5.284 0 0 0 1.3-1.554l-.582 3.169V27.118l5.037-.546h.333v8.05a8.791 8.791 0 0 1-1.16 4.594 9.3 9.3 0 0 1-3.276 3.2 17.823 17.823 0 0 1-5.113 1.968z"/>
            <path data-name="Path 288" d="M198.128 58.87a.185.185 0 0 1 .185-.158h1.03a.2.2 0 0 1 .205.158l3.678 10.42c.03.105 0 .158-.109.158h-1.105a.2.2 0 0 1-.205-.158l-.825-2.338h-4.342l-.822 2.338a.211.211 0 0 1-.2.158h-1.105c-.1 0-.141-.053-.109-.158zm2.4 6.789-1.688-4.881h-.033l-1.7 4.881z"/>
            <path data-name="Path 289" d="M211.484 69.621a5.346 5.346 0 0 1-1.12-.115 6.287 6.287 0 0 1-1.042-.291 5.569 5.569 0 0 1-.9-.421 4.684 4.684 0 0 1-.708-.517.161.161 0 0 1-.018-.234l.695-.824a.146.146 0 0 1 .224-.012 6.487 6.487 0 0 0 1.29.754 4.132 4.132 0 0 0 1.709.348 2.716 2.716 0 0 0 1.743-.5 1.624 1.624 0 0 0 .627-1.323 1.781 1.781 0 0 0-.113-.639 1.3 1.3 0 0 0-.37-.5 2.35 2.35 0 0 0-.686-.38 5.178 5.178 0 0 0-1.076-.236l-.538-.077q-3.156-.429-3.156-2.971a3.335 3.335 0 0 1 .244-1.29 2.8 2.8 0 0 1 .7-1 3.2 3.2 0 0 1 1.109-.628 4.4 4.4 0 0 1 1.451-.224 5.823 5.823 0 0 1 1.807.278 5.007 5.007 0 0 1 1.463.716.142.142 0 0 1 .03.223l-.537.868a.154.154 0 0 1-.22.028 6.03 6.03 0 0 0-1.277-.6 4.3 4.3 0 0 0-1.313-.2 2.148 2.148 0 0 0-1.519.484 1.626 1.626 0 0 0-.518 1.252 1.4 1.4 0 0 0 .5 1.113 3.478 3.478 0 0 0 1.756.6l.525.083a4.325 4.325 0 0 1 2.364.947 2.656 2.656 0 0 1 .79 2.053 3.369 3.369 0 0 1-.247 1.3 2.62 2.62 0 0 1-.738 1.02 3.623 3.623 0 0 1-1.233.672 5.384 5.384 0 0 1-1.698.243z"/>
            <path data-name="Path 290" d="M214.718 45.786c.53.117 1.059.225 1.586.318a9.215 9.215 0 0 0 1.585.139 7.29 7.29 0 0 0 2.183-.3 5.74 5.74 0 0 0 1.417-.614l-1.252 1.243a6.812 6.812 0 0 0 .875-1.936 16.018 16.018 0 0 0 .53-2.767 32.5 32.5 0 0 0 .18-3.647 49.55 49.55 0 0 0-.24-4.983 107.694 107.694 0 0 0-.551-4.473l5.18-.551h.34q.28 2.078.458 4.58c.122 1.662.184 3.354.184 5.063a21.968 21.968 0 0 1-.7 5.957 10.183 10.183 0 0 1-2.032 3.977 7.793 7.793 0 0 1-3.2 2.233 11.97 11.97 0 0 1-4.223.7 13.928 13.928 0 0 1-1.663-.105 28.536 28.536 0 0 1-1.459-.212l-.6-.107v-.311z"/>
            <path data-name="Path 291" d="M223.077 69.447a.138.138 0 0 1-.155-.158v-9.171c0-.064-.032-.1-.093-.1h-2.942a.139.139 0 0 1-.156-.158v-.993a.139.139 0 0 1 .156-.158h7.47a.14.14 0 0 1 .159.158v.993a.14.14 0 0 1-.159.158h-2.935a.086.086 0 0 0-.1.1v9.171a.14.14 0 0 1-.159.158z"/>
            <path data-name="Path 292" d="M241.011 42.793v-4.546h12.746v3.938l-.606.608zm-10.549-.334 1.615-4.212h10.163a5 5 0 0 0 2.693-.531 1.871 1.871 0 0 0 .781-1.659 3.767 3.767 0 0 0-.43-1.752 5.9 5.9 0 0 0-.94-1.392l2.19.151c-.836.186-1.555.329-2.166.43s-1.178.173-1.708.216-1.1.057-1.708.057h-1.19c-.609 0-1.3-.02-2.059-.057a18.147 18.147 0 0 1-2.291-.273 11.626 11.626 0 0 1-2.178-.643l1.313-4.184h.3a14.556 14.556 0 0 0 2.93.538c1.079.091 2.115.139 3.114.139h.969q1.466 0 2.855-.075a13.269 13.269 0 0 0 2.3-.3h.363a11.9 11.9 0 0 1 1.545 1.751 11.856 11.856 0 0 1 1.323 2.306 6.27 6.27 0 0 1 .55 2.533 6.123 6.123 0 0 1-.7 2.868 5.968 5.968 0 0 1-2.34 2.316l-1.04 1.558a8.551 8.551 0 0 1-1.711.415 14.741 14.741 0 0 1-2.1.132h-12.443z"/>
            <path data-name="Path 293" d="M234.774 69.447a.141.141 0 0 1-.159-.158v-4.232l-3.174-6.175c-.039-.111 0-.171.131-.171h1.118a.277.277 0 0 1 .238.158l2.4 4.594h.033l2.384-4.594a.221.221 0 0 1 .223-.158h1.088c.125 0 .168.06.125.171l-3.174 6.175v4.232a.139.139 0 0 1-.156.158z"/>
            <path data-name="Path 294" d="M264.289 27.358a10.6 10.6 0 0 1 4.938 1.074 7.814 7.814 0 0 1 3.192 2.88 7.673 7.673 0 0 1 1.11 4.1 8.256 8.256 0 0 1-1.052 4.165 7.765 7.765 0 0 1-2.958 2.933 8.866 8.866 0 0 1-4.436 1.079 11.126 11.126 0 0 1-3.222-.478 9.945 9.945 0 0 1-2.958-1.464 11.677 11.677 0 0 1-2.543-2.549l3.965-3.017a11.261 11.261 0 0 0 2.163 1.574 12.609 12.609 0 0 0 2.531 1.082 9.558 9.558 0 0 0 2.531.427c.368.02.646.023.836.015s.35-.015.477-.015l-2.563 1.491a8.992 8.992 0 0 0 1.45-2.118 5.682 5.682 0 0 0 .561-2.548 3.377 3.377 0 0 0-.806-2.281 4.82 4.82 0 0 0-2.182-1.418 8.373 8.373 0 0 0-3.11-.415l1.007-.948a31.2 31.2 0 0 1-.749 4.954 10.492 10.492 0 0 1-1.629 3.741 7.137 7.137 0 0 1-2.959 2.352 11.824 11.824 0 0 1-4.724.818v-3.93l.607-.616a3.418 3.418 0 0 0 2.656-1.006 7.091 7.091 0 0 0 1.415-3.136 47.562 47.562 0 0 0 .871-5.463l.43-.4a21.553 21.553 0 0 1 2.466-.621 13.854 13.854 0 0 1 2.685-.262z"/>
        </g>
    </g>
</svg>
