<svg width="23" height="23" viewBox="0 0 23 23" fill="none" xmlns="http://www.w3.org/2000/svg">
<path d="M11.5 3.83301C6.58291 3.83301 2.30028 6.92133 0 11.4998C2.30028 16.079 6.58291 19.1665 11.5 19.1665C16.4171 19.1665 20.6997 16.079 23 11.4998C20.6997 6.92133 16.4171 3.83301 11.5 3.83301ZM11.5 16.2915C8.85326 16.2915 6.70824 14.1465 6.70824 11.4998C6.70824 8.85303 8.85326 6.70801 11.5 6.70801C14.1467 6.70801 16.2918 8.85303 16.2918 11.4998C16.2918 14.1465 14.1467 16.2915 11.5 16.2915Z" fill="#909AB9"/>
<path d="M11.5 14.375C13.0878 14.375 14.375 13.0878 14.375 11.5C14.375 9.91218 13.0878 8.625 11.5 8.625C9.91218 8.625 8.625 9.91218 8.625 11.5C8.625 13.0878 9.91218 14.375 11.5 14.375Z" fill="#909AB9"/>
</svg>
