<svg width="23" height="23" viewBox="0 0 23 23" fill="none" xmlns="http://www.w3.org/2000/svg">
<g clip-path="url(#clip0_27164_4044)">
<path d="M11.325 7.85723L14.6174 11.1497L14.6331 10.9772C14.6331 9.24735 13.2273 7.84155 11.4974 7.84155L11.325 7.85723Z" fill="#909AB9"/>
<path d="M11.4974 5.75121C14.3822 5.75121 16.7235 8.09251 16.7235 10.9773C16.7235 11.6515 16.5876 12.2943 16.3525 12.8848L19.4097 15.9421C20.988 14.6251 22.2318 12.9214 23 10.9773C21.1866 6.38882 16.7287 3.13818 11.4974 3.13818C10.0341 3.13818 8.63357 3.39947 7.33228 3.86982L9.58994 6.12225C10.1804 5.89231 10.8232 5.75121 11.4974 5.75121Z" fill="#909AB9"/>
<path d="M1.0452 2.90296L3.4283 5.28606L3.90389 5.76165C2.17928 7.10998 0.815269 8.90254 0 10.9773C1.80824 15.5658 6.2713 18.8164 11.4974 18.8164C13.1175 18.8164 14.6644 18.5028 16.0807 17.9332L16.5249 18.3774L19.5718 21.4294L20.9044 20.102L2.37785 1.57031L1.0452 2.90296ZM6.82528 8.6778L8.44014 10.2927C8.39311 10.5174 8.36175 10.7421 8.36175 10.9773C8.36175 12.7071 9.76755 14.1129 11.4974 14.1129C11.7326 14.1129 11.9573 14.0816 12.1768 14.0345L13.7917 15.6494C13.0966 15.9943 12.3232 16.2034 11.4974 16.2034C8.61261 16.2034 6.2713 13.8621 6.2713 10.9773C6.2713 10.1516 6.48036 9.37808 6.82528 8.6778Z" fill="#909AB9"/>
</g>
<defs>
<clipPath id="clip0_27164_4044">
<rect width="23" height="23" fill="white"/>
</clipPath>
</defs>
</svg>
