<svg width="366" height="244" viewBox="0 0 366 244" fill="none" xmlns="http://www.w3.org/2000/svg">
<g clip-path="url(#clip0_3329_7186)">
<path d="M366 0H0V244H366V0Z" fill="white"/>
<path d="M323.174 224.626H61.6792V225.667H323.174V224.626Z" fill="#5E3B3B"/>
<path d="M89.1779 199.49C64.7494 192.17 28.4626 152.496 49.4994 119.69C67.2911 91.9433 96.2824 99.9465 124.322 80.1011C140.385 68.7307 143.309 57.8524 154.891 46.0184C172.207 28.3284 194.281 17.2711 218.783 18.5684C363.674 20.8701 388.163 265.968 89.1779 199.49Z" fill="#F4F7F4"/>
<path d="M251.458 155.81L256.574 158.14C256.785 157.925 257.001 157.718 257.216 157.518C257.534 157.238 257.859 156.969 258.201 156.733C261.592 154.367 266.228 153.334 269.9 155.237C272.316 156.489 274.215 158.901 276.907 159.243C281.315 159.796 284.284 154.659 288.513 153.305C293.332 151.768 298.944 155.408 303.463 153.134C307.082 151.308 307.956 146.502 306.809 142.516C306.655 141.975 306.464 141.455 306.236 140.955C304.207 136.481 300.002 133.049 295.207 131.971C290.413 130.894 285.142 132.187 281.389 135.367C277.432 138.718 274.841 144.139 269.823 145.452C267.399 146.091 264.809 145.603 262.336 146.038C260.209 146.412 257.936 147.779 255.935 149.682C254.321 151.207 252.885 153.077 251.824 155.07C251.702 155.31 251.576 155.562 251.458 155.81Z" fill="#53BC91"/>
<path d="M253.073 156.705L252.483 156.115C252.698 155.9 252.914 155.688 253.142 155.481C253.805 154.859 254.516 154.261 255.252 153.708C257.204 152.24 259.469 151.3 261.657 150.393C261.954 150.271 262.251 150.145 262.548 150.023C265.765 148.673 268.77 149.084 271.674 149.483C274.5 149.869 277.42 150.271 280.563 149.027C282.869 148.116 284.736 146.477 286.541 144.891C288.725 142.976 290.982 140.995 294.02 140.284C297.493 139.47 303.052 140.938 306.927 142.118L306.688 142.915C304.504 142.252 297.863 140.239 294.211 141.097C291.377 141.76 289.294 143.586 287.094 145.518C285.236 147.148 283.308 148.836 280.872 149.804C277.525 151.125 274.496 150.711 271.564 150.312C268.644 149.914 265.883 149.531 262.873 150.796C262.576 150.922 262.275 151.044 261.979 151.17C259.738 152.097 257.623 152.976 255.753 154.383C255.037 154.92 254.35 155.497 253.707 156.103C253.487 156.294 253.28 156.498 253.073 156.705Z" fill="white"/>
<path d="M257.026 121.976C257.286 125.941 257.31 130.861 253.805 132.744C252.365 133.513 250.629 133.541 249.161 134.265C246.676 135.497 245.541 138.494 245.509 141.268C245.464 144.712 245.806 148.734 246.188 152.496C246.225 152.817 246.257 153.138 246.29 153.456L255.135 157.486C255.179 157.205 255.22 156.916 255.257 156.628C255.354 155.798 255.432 154.928 255.501 154.041C255.619 152.598 255.732 151.105 255.94 149.678C256.566 145.408 258.059 141.744 263.203 141.841C265.419 141.882 267.627 143.232 269.746 142.577C273.089 141.54 273.162 136.925 274.736 133.806C276.208 130.873 279.315 129.08 282.479 128.218C285.647 127.356 288.957 127.266 292.202 126.795C299.352 125.745 306.395 122.643 311.092 117.157C315.789 111.671 317.745 103.606 314.963 96.9371C312.186 90.2719 304.215 85.8677 297.338 88.0799C289.998 90.4427 285.399 99.0762 277.713 99.7553C274.842 100.012 271.963 99.064 269.096 99.3283C264.362 99.7716 260.438 103.554 258.612 107.937C256.79 112.325 256.721 117.234 257.026 121.976Z" fill="#53BC91"/>
<path d="M250.307 154.001L249.502 153.789C249.795 152.675 250.039 151.467 250.295 150.186C251.145 145.961 252.109 141.17 255.309 138.714C262.393 133.277 263.902 128.055 265.362 123.009C266.749 118.21 268.058 113.68 274.345 110.081C276.362 108.926 280.173 108.596 284.585 108.218C294.813 107.34 308.818 106.136 312.97 93.9481L313.759 94.2165C309.432 106.921 295.114 108.149 284.658 109.048C280.344 109.418 276.618 109.739 274.76 110.804C268.762 114.237 267.558 118.409 266.159 123.244C264.732 128.181 263.117 133.777 255.813 139.381C252.861 141.646 251.93 146.274 251.108 150.357C250.852 151.642 250.608 152.862 250.307 154.001Z" fill="white"/>
<path d="M292.263 127.201L292.141 126.38C299.888 125.245 306.505 121.87 310.775 116.88L311.405 117.421C307.013 122.565 300.213 126.038 292.263 127.201Z" fill="#5E3B3B"/>
<path d="M255.46 158.088L245.903 153.736L245.777 152.541C245.435 149.19 245.049 144.883 245.094 141.26C245.126 138.612 246.163 135.286 248.978 133.891C249.73 133.517 250.539 133.322 251.32 133.135C252.141 132.935 252.914 132.748 253.609 132.374L254 133.106C253.211 133.529 252.349 133.736 251.515 133.94C250.742 134.127 250.015 134.306 249.348 134.635C246.871 135.863 245.956 138.869 245.928 141.268C245.883 144.847 246.265 149.125 246.607 152.447L246.684 153.171L254.809 156.872C254.821 156.77 254.838 156.668 254.85 156.571C254.956 155.676 255.037 154.729 255.094 154.005L255.122 153.639C255.232 152.309 255.342 150.934 255.533 149.613C256.098 145.757 257.473 141.349 263.15 141.418C263.17 141.418 263.195 141.418 263.215 141.418C264.146 141.435 265.061 141.666 265.948 141.894C267.241 142.224 268.465 142.533 269.624 142.175C271.722 141.524 272.422 139.255 273.166 136.851C273.508 135.749 273.861 134.607 274.362 133.61L275.106 133.984C274.634 134.92 274.293 136.026 273.959 137.1C273.186 139.601 272.385 142.187 269.868 142.968C268.485 143.395 267.086 143.041 265.74 142.699C264.899 142.488 264.028 142.264 263.195 142.248C263.174 142.248 263.154 142.248 263.134 142.248C258.132 142.187 256.895 145.993 256.35 149.731C256.163 151.024 256.049 152.386 255.944 153.704L255.915 154.07C255.858 154.802 255.777 155.757 255.667 156.668C255.631 156.965 255.59 157.258 255.541 157.543L255.46 158.088Z" fill="#5E3B3B"/>
<path d="M256.611 122C256.326 117.575 256.298 112.427 258.233 107.779C260.303 102.818 264.553 99.3405 269.063 98.9135C270.547 98.7753 272.036 98.9542 273.475 99.125C274.862 99.2917 276.293 99.4625 277.68 99.3365L277.753 100.166C276.281 100.296 274.805 100.121 273.378 99.9505C271.979 99.7838 270.535 99.613 269.14 99.7431C264.931 100.138 260.954 103.419 259.002 108.1C257.131 112.594 257.164 117.624 257.44 121.951L256.611 122Z" fill="#5E3B3B"/>
<path d="M316.24 107.567L315.427 107.401C316.175 103.773 315.882 100.211 314.581 97.0917C311.767 90.3369 303.93 86.3923 297.468 88.4703C294.252 89.5033 291.511 91.8253 288.859 94.0742C287.887 94.8997 286.879 95.7497 285.866 96.5264L285.362 95.8635C286.362 95.099 287.359 94.2572 288.326 93.4357C291.039 91.1381 293.845 88.7631 297.216 87.6773C304.077 85.4691 312.381 89.6334 315.349 96.7704C316.712 100.044 317.021 103.777 316.24 107.567Z" fill="#5E3B3B"/>
<path d="M276.859 159.653C275.045 159.426 273.585 158.323 272.174 157.258C271.385 156.664 270.571 156.05 269.713 155.607L270.096 154.867C271.015 155.343 271.857 155.977 272.674 156.595C274.061 157.64 275.37 158.628 276.964 158.828L276.859 159.653Z" fill="#5E3B3B"/>
<path d="M303.654 153.504L303.28 152.76C306.748 151.012 307.48 146.339 306.415 142.63C306.269 142.114 306.081 141.609 305.862 141.121C303.89 136.774 299.774 133.419 295.122 132.374C290.461 131.329 285.309 132.594 281.665 135.68L281.128 135.046C284.967 131.793 290.4 130.459 295.305 131.565C300.209 132.667 304.544 136.201 306.622 140.78C306.858 141.3 307.057 141.845 307.216 142.398C308.375 146.441 307.525 151.552 303.654 153.504Z" fill="#5E3B3B"/>
<path d="M163.671 120.699C167.144 120.503 171.45 120.52 173.073 123.602C173.736 124.867 173.744 126.392 174.37 127.677C175.428 129.861 178.042 130.878 180.47 130.93C183.484 130.995 187.009 130.731 190.303 130.422C190.588 130.394 190.869 130.369 191.145 130.341L194.744 122.63C194.5 122.59 194.248 122.549 193.992 122.516C193.268 122.423 192.508 122.35 191.731 122.281C190.466 122.167 189.161 122.053 187.912 121.862C184.179 121.28 180.987 119.942 181.109 115.44C181.162 113.501 182.361 111.577 181.804 109.719C180.922 106.787 176.883 106.685 174.163 105.282C171.609 103.968 170.064 101.236 169.336 98.4621C168.608 95.6846 168.555 92.781 168.165 89.9384C167.302 83.6717 164.643 77.4822 159.877 73.3301C155.111 69.174 148.067 67.4009 142.207 69.7799C136.351 72.1589 132.431 79.1007 134.314 85.1357C136.323 91.5813 143.842 95.6765 144.379 102.407C144.578 104.924 143.728 107.433 143.939 109.946C144.293 114.09 147.567 117.555 151.394 119.194C155.22 120.825 159.519 120.926 163.671 120.699Z" fill="#53BC91"/>
<path d="M191.65 126.827L191.458 127.531C190.486 127.266 189.429 127.043 188.311 126.807C184.618 126.03 180.43 125.148 178.307 122.329C173.606 116.083 169.047 114.721 164.639 113.403C160.45 112.151 156.493 110.971 153.39 105.436C152.394 103.663 152.138 100.325 151.841 96.4573C151.154 87.4984 150.21 75.2293 139.572 71.4961L139.812 70.8088C150.897 74.6965 151.861 87.2422 152.565 96.4003C152.854 100.178 153.106 103.444 154.025 105.079C156.981 110.357 160.625 111.443 164.846 112.704C169.157 113.993 174.041 115.453 178.888 121.886C180.848 124.489 184.891 125.339 188.457 126.091C189.592 126.335 190.657 126.559 191.65 126.827Z" fill="white"/>
<path d="M168.527 89.8896L167.807 89.9872C166.876 83.1959 163.972 77.3765 159.641 73.6026L160.121 73.0536C164.582 76.9454 167.567 82.9234 168.527 89.8896Z" fill="#5E3B3B"/>
<path d="M195.269 122.35L191.381 130.678L190.336 130.78C187.4 131.052 183.626 131.357 180.458 131.288C178.14 131.239 175.237 130.304 174.037 127.832C173.716 127.173 173.553 126.461 173.39 125.774C173.224 125.054 173.065 124.375 172.744 123.765L173.39 123.427C173.752 124.123 173.931 124.879 174.102 125.611C174.261 126.286 174.407 126.929 174.692 127.514C175.745 129.694 178.368 130.516 180.47 130.56C183.602 130.629 187.347 130.324 190.263 130.056L190.897 129.995L194.203 122.911C194.114 122.899 194.029 122.887 193.939 122.874C193.158 122.773 192.329 122.695 191.694 122.643L191.373 122.614C190.21 122.508 189.006 122.399 187.851 122.22C184.48 121.695 180.633 120.455 180.739 115.489C180.739 115.469 180.739 115.449 180.739 115.432C180.759 114.619 180.971 113.818 181.178 113.041C181.475 111.911 181.755 110.845 181.45 109.824C180.897 107.982 178.917 107.352 176.818 106.681C175.855 106.372 174.858 106.055 173.988 105.607L174.322 104.961C175.135 105.38 176.103 105.689 177.038 105.99C179.222 106.685 181.479 107.409 182.146 109.617C182.512 110.833 182.191 112.053 181.877 113.228C181.682 113.964 181.483 114.721 181.463 115.453C181.463 115.469 181.463 115.489 181.463 115.506C181.369 119.885 184.692 120.996 187.961 121.504C189.092 121.679 190.283 121.789 191.438 121.89L191.759 121.919C192.398 121.976 193.236 122.053 194.033 122.155C194.293 122.191 194.549 122.228 194.797 122.268L195.269 122.35Z" fill="#976063"/>
<path d="M163.691 121.061C159.816 121.272 155.31 121.26 151.255 119.527C146.929 117.677 143.919 113.928 143.582 109.979C143.472 108.678 143.639 107.376 143.801 106.116C143.956 104.904 144.118 103.651 144.021 102.435L144.749 102.378C144.85 103.667 144.684 104.961 144.525 106.209C144.367 107.429 144.208 108.694 144.31 109.918C144.623 113.602 147.461 117.116 151.544 118.861C155.46 120.532 159.865 120.544 163.655 120.337L163.691 121.061Z" fill="#5E3B3B"/>
<path d="M151.528 68.747L151.373 69.4587C148.206 68.7755 145.082 69.0032 142.345 70.1175C136.412 72.5249 132.895 79.3529 134.664 85.0299C135.546 87.8522 137.555 90.2719 139.499 92.6102C140.215 93.4683 140.951 94.3589 141.622 95.2495L141.04 95.6846C140.381 94.8062 139.649 93.9237 138.942 93.0738C136.953 90.6785 134.895 88.206 133.972 85.2455C132.093 79.2227 135.802 71.9881 142.073 69.4424C144.944 68.2753 148.218 68.0353 151.528 68.747Z" fill="#5E3B3B"/>
<path d="M257.664 68.6941V221.015C257.664 223.142 255.944 224.866 253.813 224.866H178.941C176.815 224.866 175.09 223.142 175.09 221.015V68.6941C175.09 66.5632 176.815 64.843 178.941 64.843H253.813C255.944 64.843 257.664 66.5632 257.664 68.6941Z" fill="#5E3B3B"/>
<path d="M254.175 68.6941V221.015C254.175 223.142 252.455 224.866 250.324 224.866H175.448C173.321 224.866 171.597 223.142 171.597 221.015V68.6941C171.597 66.5632 173.321 64.843 175.448 64.843H250.32C252.455 64.843 254.175 66.5632 254.175 68.6941Z" fill="#CE4D5A"/>
<path d="M250.234 81.4228V207.921C250.234 210.495 248.278 212.585 245.867 212.585H179.962C177.551 212.585 175.595 210.495 175.595 207.921V81.4228C175.595 78.8486 177.551 76.7583 179.962 76.7583H245.871C248.282 76.7583 250.234 78.8486 250.234 81.4228Z" fill="white"/>
<path d="M223.215 70.3777H202.406C202.085 70.3777 201.829 70.638 201.829 70.9552C201.829 71.2765 202.089 71.5327 202.406 71.5327H223.215C223.536 71.5327 223.797 71.2724 223.797 70.9552C223.793 70.638 223.532 70.3777 223.215 70.3777Z" fill="#5E3B3B"/>
<path d="M196.884 215.013L188.856 206.977L195.838 201.263L202.455 209.189C202.455 209.189 202.931 210.251 201.491 212.951C200.068 215.623 196.884 215.013 196.884 215.013Z" fill="#FCB47E"/>
<path d="M197.762 221.08L216.204 210.568C216.847 210.202 217.05 209.364 216.635 208.754C216.631 208.746 216.627 208.742 216.623 208.734C216.53 208.596 216.428 208.465 216.326 208.327C215.981 207.88 215.57 207.457 215.163 207.286C213.626 206.623 211.629 207.062 207.916 207.587C205.586 207.912 203.41 207.827 202.426 207.766C202.113 207.746 201.833 207.953 201.743 208.258C200.125 213.903 197.461 214.419 195.948 213.329C194.797 212.5 194.204 213.146 194.191 213.589C194.163 214.968 195.537 218.173 196.265 219.755C196.339 219.929 196.412 220.088 196.469 220.214C196.607 220.507 196.692 220.686 196.692 220.686C196.855 221.121 197.359 221.304 197.762 221.08Z" fill="#4F3737"/>
<path d="M208.16 208.181C208.156 207.827 208.103 207.575 208.099 207.546L207.737 207.624C207.741 207.64 208.051 209.149 207.079 209.913L207.306 210.202C208.03 209.637 208.164 208.77 208.16 208.181Z" fill="white"/>
<path d="M210.165 207.998C210.161 207.644 210.108 207.392 210.104 207.363L209.742 207.441C209.746 207.457 210.059 208.966 209.083 209.73L209.311 210.019C210.035 209.454 210.169 208.587 210.165 207.998Z" fill="white"/>
<path d="M201.104 213.313L200.824 213.077C200.799 213.106 198.453 215.842 196.131 214.582L195.956 214.907C198.542 216.31 201.076 213.345 201.104 213.313Z" fill="white"/>
<path d="M209.811 212.426L198.999 218.437L199.179 218.76L209.991 212.749L209.811 212.426Z" fill="white"/>
<path d="M213.771 210.239L211.215 211.659L211.395 211.982L213.951 210.562L213.771 210.239Z" fill="white"/>
<path d="M174.842 189.84C178.295 169.43 146.209 169.881 143.687 168.608C141.081 167.299 118.986 152.992 110.678 139.019C107.075 132.956 99.4298 128.669 91.8088 126.766C87.4697 126.673 75.595 127.608 68.2222 139.609V158.299L87.49 193.59L134.07 205.655L163.923 203.073L173.309 194.297L174.842 189.84Z" fill="#FBA937"/>
<path d="M100.943 171.658C86.8805 168.161 80.0769 154.96 80.0078 154.83L80.5527 154.554C80.6178 154.684 87.3034 167.636 101.089 171.068L100.943 171.658Z" fill="#F98B38"/>
<path d="M98.8932 171.727C92.2402 171.727 86.8193 168.153 86.7583 168.112L87.0958 167.604C87.1568 167.644 93.2324 171.646 100.325 171.056L100.374 171.662C99.8774 171.711 99.3812 171.727 98.8932 171.727Z" fill="#F98B38"/>
<path d="M124.456 70.9552C127.689 68.3322 130.666 65.1724 132.065 61.2521C133.464 57.3319 132.984 52.5332 130.032 49.593C127.628 47.1977 123.972 46.3885 120.601 46.7707C117.23 47.153 114.07 48.5845 111.056 50.1501C105.298 53.1513 71.7887 73.9239 83.4397 80.764C94.6556 87.352 115.794 77.9865 124.456 70.9552Z" fill="#F4F7F4"/>
<path d="M252.63 223.489C262.581 220.147 267.939 209.369 264.597 199.418C261.254 189.466 250.477 184.108 240.526 187.451C230.574 190.793 225.216 201.57 228.558 211.522C231.901 221.474 242.678 226.831 252.63 223.489Z" fill="#FFC457"/>
<path d="M254.116 216.867C260.411 212.694 262.132 204.207 257.959 197.912C253.786 191.616 245.299 189.896 239.004 194.069C232.708 198.242 230.987 206.729 235.161 213.024C239.334 219.32 247.82 221.04 254.116 216.867Z" fill="#FFE9AB"/>
<path d="M237.379 222.556C230.104 218.64 225.871 210.316 227.522 201.788C228.506 196.701 231.409 192.305 235.704 189.401C239.994 186.501 245.163 185.444 250.246 186.428C252.52 186.867 254.671 187.697 256.631 188.889L256.228 189.551C254.345 188.405 252.284 187.612 250.1 187.193C245.216 186.249 240.259 187.262 236.139 190.048C232.019 192.833 229.23 197.054 228.286 201.938C226.338 212.016 232.951 221.804 243.028 223.752C247.656 224.647 252.402 223.768 256.399 221.28L256.81 221.938C252.646 224.529 247.701 225.444 242.882 224.513C240.909 224.13 239.063 223.463 237.379 222.556Z" fill="#7C4A4A"/>
<path d="M261.938 217.298L261.324 216.822C263.101 214.517 264.284 211.886 264.841 209.006C265.854 203.777 264.573 198.352 261.324 194.126L261.942 193.655C265.321 198.059 266.659 203.707 265.606 209.157C265.024 212.154 263.792 214.895 261.938 217.298Z" fill="#7C4A4A"/>
<path d="M239.112 191.048C240.019 192.353 240.352 193.789 240.283 195.322C241.523 194.419 242.914 193.907 244.5 193.943C243.593 192.638 243.256 191.202 243.325 189.669C242.085 190.572 240.698 191.089 239.112 191.048Z" fill="#FFF9EE"/>
<path d="M247.131 218.425C247.66 219.181 247.851 220.015 247.815 220.909C248.534 220.385 249.344 220.088 250.267 220.108C249.738 219.352 249.543 218.514 249.584 217.624C248.86 218.144 248.054 218.445 247.131 218.425Z" fill="#FFF9EE"/>
<path d="M305.098 217.729H268.225V224.866H305.098V217.729Z" fill="#FFC457"/>
<path d="M312.861 209.844H275.988V216.981H312.861V209.844Z" fill="#FFC457"/>
<path d="M305.122 201.979H268.25V209.116H305.122V201.979Z" fill="#FFC457"/>
<path d="M301.629 201.979H300.852V209.116H301.629V201.979Z" fill="#7C4A4A"/>
<path d="M297.749 201.979H296.972V209.116H297.749V201.979Z" fill="#7C4A4A"/>
<path d="M286.102 201.979H285.325V209.116H286.102V201.979Z" fill="#7C4A4A"/>
<path d="M278.335 201.979H277.558V209.116H278.335V201.979Z" fill="#7C4A4A"/>
<path d="M309.371 209.844H308.595V216.981H309.371V209.844Z" fill="#7C4A4A"/>
<path d="M305.488 209.844H304.711V216.981H305.488V209.844Z" fill="#7C4A4A"/>
<path d="M293.841 209.844H293.064V216.981H293.841V209.844Z" fill="#7C4A4A"/>
<path d="M289.957 209.844H289.181V216.981H289.957V209.844Z" fill="#7C4A4A"/>
<path d="M286.074 217.729H285.297V224.866H286.074V217.729Z" fill="#7C4A4A"/>
<path d="M278.31 217.729H277.534V224.866H278.31V217.729Z" fill="#7C4A4A"/>
<path d="M274.427 217.729H273.65V224.866H274.427V217.729Z" fill="#7C4A4A"/>
<path d="M304.923 209.075H268.246V209.852H304.923V209.075Z" fill="#7C4A4A"/>
<path d="M312.861 217.014H276.013V217.79H312.861V217.014Z" fill="#7C4A4A"/>
<path d="M278.823 212.333C280.258 213.061 281.246 214.183 281.926 215.586C282.601 214.183 283.593 213.057 285.033 212.325C283.597 211.593 282.605 210.474 281.926 209.071C281.251 210.478 280.262 211.605 278.823 212.333Z" fill="#FFF9EE"/>
<path d="M291.287 221.576C292.109 221.995 292.678 222.638 293.064 223.439C293.451 222.634 294.02 221.991 294.841 221.572C294.02 221.153 293.451 220.511 293.064 219.71C292.674 220.511 292.109 221.158 291.287 221.576Z" fill="#FFF9EE"/>
<path d="M299.075 205.847C299.896 206.265 300.466 206.908 300.852 207.709C301.238 206.904 301.808 206.261 302.629 205.842C301.808 205.424 301.238 204.781 300.852 203.98C300.466 204.785 299.9 205.432 299.075 205.847Z" fill="#FFF9EE"/>
<path d="M313.251 209.844H312.475V217.79H313.251V209.844Z" fill="#7C4A4A"/>
<path d="M133.545 161.003C133.545 161.003 165.245 165.298 169.934 166.973C175.505 168.966 203.354 200.893 203.354 200.893L191.056 211.715L160.454 184.159L149.726 185.895L135.713 183.708C135.713 183.708 128.177 181.089 126.006 180.93C119.186 180.434 107.62 184.464 102.456 174.708L127.645 157.242L133.545 161.003Z" fill="#7C4A4A"/>
<path d="M78.8569 117.811C80.6422 117.665 81.8093 117.693 82.1103 117.669C82.4885 117.641 82.8382 117.209 83.4319 116.925C84.8024 116.27 87.4417 115.253 89.2879 115.648C89.5238 115.697 89.5523 115.998 89.2025 116.091C88.5803 116.274 87.5189 116.433 87.5677 116.599C87.6816 116.937 90.5364 115.961 90.7235 116.705C90.8617 117.266 87.3969 117.58 87.4213 117.746C87.4701 118.084 90.5039 117.153 90.6584 117.876C90.8089 118.564 87.9622 118.385 87.9378 118.633C87.9134 118.889 90.1623 118.564 90.2843 119.023C90.4713 119.723 86.7585 119.747 86.6812 120.04C86.5348 120.499 88.4339 120.512 88.3526 121.109C88.2875 121.675 85.8272 121.325 85.3433 121.284C84.2331 121.191 83.7247 120.63 82.3949 121.272C81.6629 121.626 80.9391 121.98 80.2193 122.342L78.8569 117.811Z" fill="#FCB47E"/>
<path d="M106.124 130.625C101.215 127.783 99.422 124.525 99.422 124.525L90.9268 126.006C90.9268 126.006 93.6474 131.117 93.196 135.973C92.8869 139.287 97.8889 141.975 105.518 141.731C113.147 141.487 108.352 131.919 106.124 130.625Z" fill="#FCB47E"/>
<path d="M197.266 206.298L196.859 206.656C191.654 200.747 172.345 179.246 164.871 176.839C162.642 176.119 157.62 176.298 151.813 176.501C141.471 176.867 128.604 177.319 120.699 173.565C120.699 173.565 120.992 173.24 121.097 173.155C128.897 176.77 141.581 176.318 151.788 175.961C157.892 175.745 162.716 175.574 165.034 176.323C172.748 178.807 192.008 200.308 197.266 206.298Z" fill="#5E3B3B"/>
<path d="M134.058 161.422C133.749 161.43 133.448 161.434 133.151 161.434C130.394 161.434 128.222 161.06 127.978 161.016C128.055 160.845 128.133 160.674 128.202 160.503C128.755 160.593 130.788 160.906 133.285 160.894L133.541 161.056C133.541 161.056 133.716 161.068 134.045 161.097L134.058 161.422Z" fill="#5E3B3B"/>
<path d="M100.414 176.249C100.414 176.249 123.464 177.116 129.747 156.294C129.747 156.294 120.357 152.085 115.404 135.306C115.404 135.306 112.342 124.81 105.668 125.53L102.171 127.75C102.171 127.75 105.363 130.398 104.318 131.951C103.021 133.875 94.7251 131.052 94.7251 131.052C94.7251 131.052 90.5039 129.926 87.7508 131C87.7508 131 92.952 143.944 82.0005 147.75C81.9964 147.758 93.2245 159.466 100.414 176.249Z" fill="white"/>
<path d="M111.947 178.665C96.856 172.252 86.3152 146.591 86.2095 146.331L86.7097 146.128C86.8154 146.384 97.2749 171.841 112.159 178.165L111.947 178.665Z" fill="#C4E8E8"/>
<path d="M115.66 136.148L104.859 126.042C104.887 125.993 108.954 120.337 110.345 117.161C112.724 111.736 110.731 107.161 106.152 112.248C104.7 113.863 101.76 117.092 101.76 117.092L94.8833 112.252C94.8833 112.252 97.9455 107.864 99.6779 105.88C106.119 98.5109 111.687 96.7745 116.762 98.6085C119.336 99.5398 121.215 101.423 122.195 104.058C123.805 108.397 123.712 114.631 120.947 123.736C118.986 130.215 115.66 136.148 115.66 136.148Z" fill="white"/>
<path d="M122.366 173.675L122.203 174.192C120.682 173.7 119.422 172.813 118.864 172.382C118.86 172.382 118.852 172.378 118.848 172.374L119.295 172.032C119.304 172.04 119.312 172.044 119.324 172.057C119.905 172.488 121.044 173.248 122.366 173.675Z" fill="#5E3B3B"/>
<path d="M98.9951 110.329C98.9951 110.329 107.36 123.501 103.237 125.306C99.113 127.112 94.3713 126.754 93.1228 126.14C91.8743 125.526 89.9793 121.24 89.9793 121.24C89.9793 121.24 86.9577 115.363 89.0439 113.143C91.1301 110.918 95.8597 106.62 98.9951 110.329Z" fill="#FCB47E"/>
<path d="M88.3768 125.083C89.8123 126.262 91.2275 127.413 91.2275 127.413C92.3662 126.725 93.6838 124.542 93.391 123.131C93.391 123.131 97.0754 121.211 95.2779 116.412C95.2779 116.412 101.951 113.741 99.7512 107.901C98.6654 105.009 93.3869 104.814 89.8977 107.413C85.4244 110.748 84.5866 115.538 84.5866 115.538C81.4512 118.173 86.5346 123.57 88.3768 125.083Z" fill="#5E3B3B"/>
<path d="M92.3214 122.622C92.6956 123.537 93.7407 123.98 94.6598 123.606C95.5748 123.232 96.018 122.187 95.6439 121.268C95.2698 120.353 94.2246 119.91 93.3056 120.284C92.3865 120.658 91.9473 121.703 92.3214 122.622Z" fill="#FCB47E"/>
<path d="M115.603 136.847C115.591 136.778 114.432 130.068 110.406 127.307C108.816 126.217 106.969 125.88 104.92 126.303L104.81 125.774C107.01 125.318 108.999 125.684 110.715 126.86C114.932 129.751 116.091 136.473 116.14 136.758L115.603 136.847Z" fill="#C4E8E8"/>
<path d="M94.2818 117.25L94.1436 116.742C94.1802 116.73 98.0069 115.68 99.8288 113.615C100.622 112.716 100.919 111.504 100.666 110.207C100.386 108.767 99.4506 107.466 98.2875 106.884L98.5234 106.412C99.8288 107.063 100.874 108.511 101.187 110.105C101.472 111.565 101.134 112.935 100.227 113.964C98.2997 116.148 94.4445 117.205 94.2818 117.25Z" fill="#5E3B3B"/>
<path d="M102.504 133.163C99.2877 133.484 93.7367 131.215 92.9478 130.882L93.1592 130.381C95.8107 131.496 102.94 133.923 104.082 131.825C104.749 130.597 103.2 129.052 103.184 129.035L103.562 128.649C103.639 128.722 105.42 130.495 104.558 132.081C104.196 132.748 103.452 133.069 102.504 133.163Z" fill="#C4E8E8"/>
<path d="M195.55 207.811L191.052 211.768L175.997 198.209L160.45 184.216L149.722 185.948L135.713 183.76C135.713 183.76 128.177 181.142 126.002 180.983C125.168 180.922 124.269 180.93 123.313 180.971L119.674 175.151C119.674 175.151 129.003 174.928 139.901 179.222C142.533 180.259 146.823 181.841 150.999 181.804C155.765 181.764 161.068 179.251 163.533 180.007C166.823 181.015 169.848 184.826 173.748 189.738C177.693 194.708 182.39 200.617 187.262 205.131C190.718 208.335 195.55 207.811 195.55 207.811Z" fill="#683E3E"/>
<path d="M172.931 195.627C167.555 214.244 157.351 222.337 152.801 225.135C152.667 225.216 152.516 225.257 152.357 225.257H86.3433C86.1847 225.257 86.0342 225.216 85.9 225.135C80.7801 221.987 68.515 212.146 64.001 188.177C62.9762 182.744 62.2889 176.546 62.0815 169.466C61.6708 155.4 64.3141 145.94 68.2263 139.584C68.2263 139.584 74.0741 167.469 89.56 172.142C102.15 175.944 116.18 171.056 129.1 176.66C132.439 178.108 135.359 180.393 137.685 183.179C140.096 186.07 141.296 189.21 144.781 191.17C148.758 193.407 153.98 193.281 158.441 193.346C162.28 193.403 166.103 193.012 169.864 192.28C171.812 191.894 173.484 193.72 172.931 195.627Z" fill="#FFC457"/>
<path d="M181.361 219.25L178.551 208.246L188.421 212.744L189.124 217.079C189.124 217.079 188.994 218.234 186.375 219.824C183.789 221.397 181.361 219.25 181.361 219.25Z" fill="#FCB47E"/>
<path d="M179.027 224.915L200.251 225.273C200.991 225.285 201.593 224.671 201.548 223.931C201.548 223.923 201.548 223.915 201.548 223.907C201.536 223.74 201.52 223.577 201.499 223.406C201.43 222.841 201.288 222.272 201.032 221.918C200.047 220.564 198.108 219.925 194.643 218.482C192.471 217.575 190.645 216.391 189.828 215.838C189.568 215.659 189.222 215.696 188.99 215.912C184.72 219.946 182.162 219.027 181.418 217.323C180.853 216.021 180.011 216.278 179.775 216.652C179.047 217.823 178.6 221.28 178.417 223.016C178.392 223.207 178.372 223.378 178.36 223.516C178.331 223.842 178.315 224.037 178.315 224.037C178.222 224.488 178.567 224.907 179.027 224.915Z" fill="#4F3737"/>
<path d="M194.545 219.12C194.724 218.815 194.805 218.567 194.817 218.543L194.468 218.425C194.464 218.441 193.959 219.897 192.735 220.06L192.784 220.426C193.687 220.308 194.248 219.628 194.545 219.12Z" fill="white"/>
<path d="M196.363 219.986C196.542 219.681 196.623 219.437 196.635 219.409L196.286 219.291C196.282 219.307 195.777 220.763 194.553 220.922L194.602 221.288C195.509 221.17 196.066 220.495 196.363 219.986Z" fill="white"/>
<path d="M185.855 219.942L185.733 219.596C185.7 219.608 182.284 220.767 180.93 218.498L180.613 218.685C182.126 221.21 185.818 219.954 185.855 219.942Z" fill="white"/>
<path d="M181.439 223.276L181.429 223.646L193.795 223.986L193.805 223.617L181.439 223.276Z" fill="white"/>
<path d="M195.392 223.669L195.382 224.039L198.305 224.119L198.315 223.749L195.392 223.669Z" fill="white"/>
<path d="M240.129 149.804H185.493C183.077 149.804 181.117 147.844 181.117 145.428V108.69C181.117 106.274 183.077 104.314 185.493 104.314H240.125C242.54 104.314 244.5 106.274 244.5 108.69V145.428C244.5 147.848 242.544 149.804 240.129 149.804Z" fill="#8ED1D0"/>
<path d="M191.922 132.13L191.479 131.447L206.265 121.833L212.325 125.611L231.755 113.358L232.19 114.046L212.325 126.571L206.278 122.797L191.922 132.13Z" fill="#5E3B3B"/>
<path d="M231.023 112.862L233.455 112.769L232.321 114.92L231.023 112.862Z" fill="#5E3B3B"/>
<path d="M196.391 135.631H191.394V141.353H196.391V135.631Z" fill="#FF6B57"/>
<path d="M205.85 129.357H200.853V141.353H205.85V129.357Z" fill="#FEFEFE"/>
<path d="M215.309 132.907H210.312V141.353H215.309V132.907Z" fill="#FF6B57"/>
<path d="M224.768 127.112H219.771V141.357H224.768V127.112Z" fill="#FEFEFE"/>
<path d="M234.228 120.296H229.23V141.353H234.228V120.296Z" fill="#FEFEFE"/>
<path d="M238.575 141.508H186.64V115.4H187.453V140.694H238.575V141.508Z" fill="#5E3B3B"/>
<path d="M142.337 225.281H86.1033C81.1135 222.276 68.576 212.491 64.001 188.201C70.6947 196.973 77.1892 206.005 89.4746 206.851C107.4 208.079 115.444 203.52 131.914 216.554C135.399 219.311 142.337 225.281 142.337 225.281Z" fill="#FBA937"/>
<path d="M125.266 225.529C124.745 225.147 124.2 224.785 123.643 224.46C118.861 221.641 113.269 220.735 107.942 220.169C106.905 220.06 105.864 219.962 104.823 219.864C100.418 219.445 95.8637 219.018 91.5612 217.701C81.3295 214.574 73.9566 206.92 69.5687 201.052C68.1982 199.218 66.8969 197.286 65.5874 195.139L66.1079 194.822C67.4093 196.953 68.6984 198.872 70.0567 200.69C74.3877 206.485 81.6629 214.041 91.7361 217.123C95.9776 218.421 100.504 218.848 104.875 219.262C105.921 219.36 106.962 219.462 108.003 219.567C113.399 220.137 119.068 221.064 123.952 223.939C124.526 224.277 125.087 224.647 125.624 225.045L125.266 225.529Z" fill="#F98B38"/>
<path d="M135.44 225.436C133.529 222.386 130.251 219.864 126.449 218.522C121.215 216.676 115.554 216.855 110.215 217.323C108.816 217.445 107.393 217.607 106.01 217.762C101.964 218.221 97.779 218.693 93.6636 218.266L93.7286 217.66C97.779 218.083 101.931 217.611 105.945 217.156C107.328 216.997 108.759 216.839 110.162 216.713C115.567 216.237 121.309 216.058 126.652 217.945C130.581 219.332 133.972 221.942 135.957 225.11L135.44 225.436Z" fill="#F98B38"/>
<path d="M128.137 180.987C132.02 182.606 135.469 185.68 136.685 189.706C137.043 190.897 137.116 192.394 136.144 193.171C135.371 193.789 134.208 193.675 133.346 193.183C132.488 192.691 131.85 191.898 131.195 191.154C126.014 185.294 118.873 183.028 110.805 182.658C109.438 182.597 104.269 182.451 104.818 179.608C105.335 176.916 124.253 179.368 128.137 180.987Z" fill="#FFE9AB"/>
<g opacity="0.71">
<path d="M280.771 171.609L270.625 180.832L271.21 181.475L281.356 172.252L280.771 171.609Z" fill="white"/>
<path d="M279.269 177.007L273.812 183.406L274.475 183.971L279.931 177.572L279.269 177.007Z" fill="white"/>
</g>
<g opacity="0.71">
<path d="M243.89 40.3495L233.744 49.5767L234.329 50.2193L244.476 40.9961L243.89 40.3495Z" fill="white"/>
<path d="M242.405 45.7291L236.949 52.129L237.611 52.6936L243.067 46.2937L242.405 45.7291Z" fill="white"/>
</g>
<g opacity="0.71">
<path d="M147.287 131.597L137.136 140.821L137.722 141.467L147.868 132.24L147.287 131.597Z" fill="white"/>
<path d="M145.801 136.981L140.345 143.381L141.007 143.946L146.463 137.546L145.801 136.981Z" fill="white"/>
</g>
<g opacity="0.77">
<path d="M184.008 34.1722L181.219 39.0075H186.802L184.008 34.1722Z" fill="white"/>
</g>
<g opacity="0.77">
<path d="M285.944 79.6416H279.303L282.621 73.8913L285.944 79.6416ZM280.36 79.0316H284.886L282.621 75.1113L280.36 79.0316Z" fill="white"/>
</g>
<g opacity="0.77">
<path d="M317.082 134.025H310.441L313.76 128.275L317.082 134.025ZM311.499 133.415H316.025L313.764 129.495L311.499 133.415Z" fill="white"/>
</g>
<g opacity="0.77">
<path d="M55.8842 137.978H49.5972L52.7407 132.533L55.8842 137.978ZM50.3007 137.571H55.1807L52.7407 133.346L50.3007 137.571Z" fill="white"/>
</g>
<g opacity="0.77">
<path d="M101.419 66.2948L98.6289 71.126H104.212L101.419 66.2948Z" fill="white"/>
</g>
<path d="M190.361 213.077L185.379 212.927L173.793 212.581C173.793 212.581 172.333 204.191 171.219 197.689C170.93 196.017 170.67 194.468 170.458 193.224L190.182 210.926L190.361 213.077Z" fill="#7C4A4A"/>
<path d="M190.361 213.077L185.379 212.927L171.219 197.689C170.93 196.017 170.67 194.468 170.458 193.224L190.182 210.926L190.361 213.077Z" fill="#683E3E"/>
<path d="M81.9961 147.758C81.9961 147.758 67.3195 142.899 59.2715 131.772C56.4818 127.917 57.6855 124.546 58.5314 122.96C60.7925 118.739 65.6033 116.994 76.4735 115.648C79.4137 115.282 82.3011 115.249 82.3011 115.249L83.2852 122.504C83.2852 122.504 70.1783 124.416 70.6379 126.709C71.256 129.792 82.3336 130.995 87.7463 131.008C92.118 136.937 90.9265 145.989 81.9961 147.758Z" fill="white"/>
<path d="M83.8262 148.214L83.5903 147.726C83.631 147.705 87.7587 145.672 89.1495 141.313C90.1133 138.287 89.5643 134.863 87.5106 131.134L87.9864 130.873C90.1133 134.741 90.6785 138.311 89.6619 141.483C88.1979 146.067 84.0011 148.128 83.8262 148.214Z" fill="#C4E8E8"/>
<path d="M162.708 189.177C151.988 186.176 138.556 184.509 138.421 184.492L138.495 183.887C138.629 183.903 152.106 185.574 162.87 188.592L162.708 189.177Z" fill="#F98B38"/>
<path d="M157.697 190.926C152.427 188.291 140.422 186.851 140.304 186.839L140.377 186.233C140.874 186.29 152.606 187.697 157.974 190.381L157.697 190.926Z" fill="#F98B38"/>
<path d="M175.997 198.209L168.709 191.65C168.709 191.65 171.934 190.727 172.353 190.653C172.768 190.584 177.583 196.81 177.583 196.81L175.997 198.209Z" fill="#683E3E"/>
<path d="M170.623 193.024L170.27 193.417L189.99 211.115L190.343 210.722L170.623 193.024Z" fill="#4F3737"/>
<path d="M83.0859 148.856L82.7891 148.405C82.8135 148.389 85.3592 146.672 86.6158 143.126L87.1241 143.305C85.8065 147.03 83.1957 148.783 83.0859 148.856Z" fill="#C4E8E8"/>
<path d="M115.672 135.355L115.139 135.261C115.843 131.313 114.135 128.023 114.119 127.99L114.594 127.738C114.668 127.876 116.408 131.219 115.672 135.355Z" fill="#C4E8E8"/>
<path d="M164.973 183.195C162.968 184.281 161.439 184.492 160.812 184.529L160.451 184.212L159.637 184.346L160.402 184.029C160.418 184.021 162.041 183.187 162.98 181.516L163.452 181.776C162.919 182.732 162.191 183.427 161.614 183.874C162.358 183.728 163.44 183.407 164.716 182.719L164.973 183.195Z" fill="#4F3737"/>
</g>
<defs>
<clipPath id="clip0_3329_7186">
<rect width="366" height="244" fill="white"/>
</clipPath>
</defs>
</svg>
